<svg width="208" height="141" viewBox="0 0 208 141" fill="none" xmlns="http://www.w3.org/2000/svg">
<path d="M135.721 41.1734L133.227 33.7946C99.8765 35.5163 96.1416 21.4966 95.7901 16.9709C95.1639 8.66981 101.865 1.10657 110.741 0.110432C122.967 -1.29154 131.118 10.9695 135.27 19.0493C141.565 10.5637 153.747 3.55385 162.931 3.55385C169.961 3.55385 174.959 7.24325 176.629 14.745C177.969 20.7587 176.069 24.485 174.234 26.797C166.479 36.6354 144.102 34.6923 137.38 33.9176L135.721 41.1734ZM139.675 26.2928C149.804 27.2889 164.535 26.5511 168.676 21.3736C169.335 20.5373 170.016 19.6765 169.423 17.0078C168.577 13.2078 166.567 11.9534 162.931 11.9534C154.802 11.9042 143.377 19.6519 139.675 26.2928ZM112.63 8.35005C112.263 8.35303 111.896 8.37765 111.532 8.42384C106.5 8.98954 103.007 13.0479 103.249 16.3068C103.535 19.9962 109.675 26.2067 130.294 25.6287C127.702 19.8733 121.506 8.35005 112.63 8.35005Z" fill="#263238"/>
<path d="M207.387 29.4657H62.6147V140.799H207.387V29.4657Z" fill="#2C2E8C"/>
<path opacity="0.2" d="M207.387 29.4657H62.6147V140.799H207.387V29.4657Z" fill="white"/>
<path opacity="0.2" d="M207.387 67.9337H62.6147V140.799H207.387V67.9337Z" fill="black"/>
<path d="M170.862 29.4657H159.097V140.799H170.862V29.4657Z" fill="#263238"/>
<path d="M91.5723 29.4657H82.938V140.799H91.5723V29.4657Z" fill="#263238"/>
<path opacity="0.2" d="M120.133 29.4657H62.6147V140.799H120.133V29.4657Z" fill="black"/>
<path d="M47.3566 68.5113C42.7978 69.0401 27.6713 70.3314 22.4205 63.7028C21.5367 62.6188 20.9224 61.2942 20.639 59.8613C20.3557 58.4283 20.4131 56.9372 20.8057 55.5369C21.9042 50.4701 25.3095 47.9491 30.0661 47.9491C36.2836 47.9491 44.5224 52.7084 48.7407 58.4515C51.5529 52.9789 57.0564 44.6901 65.3281 45.637C71.337 46.3134 75.8738 51.4294 75.4454 57.0495C75.2147 60.0748 72.6771 69.5935 50.1138 68.4252L48.4331 73.4058L47.3566 68.5113ZM30.0771 53.4955C27.6164 53.4955 26.2652 54.3932 25.683 56.9635C25.4954 57.46 25.4432 58.0075 25.5331 58.5372C25.6231 59.0668 25.8511 59.5548 26.1883 59.9396C28.9895 63.4814 38.953 63.9487 45.8187 63.2723C43.3031 58.7713 35.5696 53.4955 30.0771 53.4955ZM52.179 62.8788C66.1301 63.2723 70.2934 59.0541 70.4801 56.5699C70.6449 54.3686 68.2831 51.6507 64.8777 51.2449C64.618 51.2269 64.3575 51.2269 64.0978 51.2449C58.1 51.1957 53.9037 58.9926 52.179 62.8788Z" fill="#2C2E8C"/>
<path d="M2.28882e-05 140.799H97.9429L97.9429 65.4737L2.28882e-05 65.4737L2.28882e-05 140.799Z" fill="#2C2E8C"/>
<path opacity="0.6" d="M2.28882e-05 140.799H97.9429L97.9429 65.4737L2.28882e-05 65.4737L2.28882e-05 140.799Z" fill="white"/>
<path opacity="0.1" d="M2.28882e-05 140.799H97.9429V91.4962L2.28882e-05 91.4962V140.799Z" fill="black"/>
<path opacity="0.2" d="M59.012 140.799H97.9321L97.9321 65.4737H59.012L59.012 140.799Z" fill="white"/>
<path d="M24.7055 140.799H32.6587L32.6587 65.4737H24.7055L24.7055 140.799Z" fill="#2C2E8C"/>
<path d="M78.3454 140.799H84.1895L84.1895 65.4737H78.3454L78.3454 140.799Z" fill="#2C2E8C"/>
</svg>
