<svg width="165" height="185" viewBox="0 0 165 185" fill="none" xmlns="http://www.w3.org/2000/svg">
<path d="M16.8257 37.5615C16.8257 37.5615 24.1069 71.0569 29.248 79.7552C31.8965 84.2234 54.2813 108.651 54.2813 108.651L64.1208 91.9197L40.998 70.5148L26.042 36.2227L16.8257 37.5615Z" fill="#FFBF9D"/>
<path d="M16.3993 28.3043C16.3419 28.0661 15.5301 25.3556 16.0631 24.5342C16.2577 24.2888 16.5081 24.0937 16.7934 23.9651C17.0787 23.8364 17.3906 23.7781 17.703 23.795C17.9278 23.1054 18.3786 22.5121 18.9821 22.1112C19.6481 21.8305 20.3855 21.7672 21.0894 21.9305L21.8274 21.3391C22.0657 21.0933 22.367 20.918 22.6983 20.8325C23.0295 20.747 23.3779 20.7546 23.7051 20.8545C24.2959 21.2418 24.9918 21.4369 25.6976 21.413C26.7143 21.298 28.2476 24.025 29.0758 25.3145C29.9039 26.6041 31.0437 28.3125 29.8957 30.4399C28.6592 32.5956 27.2899 34.6722 25.796 36.6576L17.4406 38.2429C17.4406 38.2429 16.2107 37.3147 15.8007 34.3085C15.5888 32.2872 15.7926 30.2438 16.3993 28.3043Z" fill="#FFBF9D"/>
<path d="M17.7274 23.795C18.0114 24.2779 18.2423 24.7901 18.4162 25.3228C18.8016 26.2838 19.3017 27.6144 19.8429 29.0929L20.0397 29.6432C20.0605 29.6965 20.077 29.7515 20.0889 29.8075C20.1108 29.8826 20.1108 29.9623 20.0889 30.0374C20.0425 30.154 19.9626 30.254 19.8593 30.3249C19.5354 30.53 19.167 30.654 18.7852 30.6863C18.4267 30.7465 18.0589 30.6639 17.7602 30.4563C17.5115 30.2944 17.297 30.0851 17.1288 29.8403C16.8833 29.5018 16.6847 29.1316 16.5385 28.7397C16.4401 28.4686 16.4073 28.3044 16.4319 28.3044C16.4565 28.3044 16.6943 28.8957 17.3174 29.6843C17.4705 29.914 17.6818 30.0989 17.9295 30.2201C18.1773 30.3413 18.4528 30.3945 18.7278 30.3742C19.056 30.3352 19.372 30.226 19.6543 30.0539C19.7049 30.0155 19.7445 29.9646 19.7691 29.906C19.7691 29.8485 19.7691 29.906 19.7691 29.7582L19.5641 29.2079C19.0311 27.7294 18.5638 26.3824 18.244 25.4049C18.0161 24.8878 17.843 24.3483 17.7274 23.795Z" fill="#FF9A6C"/>
<path d="M21.0806 21.9305C21.2599 22.364 21.3919 22.8157 21.4742 23.2776C21.6792 24.099 21.9416 25.2899 22.2039 26.5631L22.2531 26.7109C22.4906 27.3421 22.5585 28.0247 22.4499 28.6904C22.396 28.9724 22.2692 29.2354 22.0821 29.453C21.8951 29.6706 21.6544 29.8353 21.384 29.9307C21.0247 30.0321 20.6445 30.0321 20.2852 29.9307C20.0393 29.8732 19.9163 29.7993 19.9245 29.7746C19.9327 29.75 20.0639 29.7746 20.3098 29.7746C20.6435 29.8035 20.9794 29.7586 21.2938 29.6432C21.5073 29.5439 21.6936 29.3941 21.8364 29.2066C21.9793 29.0192 22.0744 28.7997 22.1138 28.5672C22.1894 27.9592 22.1162 27.3418 21.9006 26.7684L21.8514 26.6452C21.589 25.3392 21.3676 24.1811 21.2282 23.3022C21.1223 22.8529 21.0728 22.3921 21.0806 21.9305Z" fill="#FF9A6C"/>
<path d="M23.697 20.8545C23.7603 21.554 23.7603 22.2577 23.697 22.9572V22.9079C24.1234 23.9428 24.6891 25.372 25.2877 26.8998C25.4189 27.2447 25.5419 27.5815 25.6731 27.9018V27.9758V28.0415C25.5055 28.3925 25.2716 28.7077 24.9843 28.9696C24.7159 29.2321 24.3657 29.3945 23.9922 29.4296C23.8221 29.4398 23.6518 29.4128 23.4932 29.3504C23.3346 29.2879 23.1915 29.1916 23.0738 29.0682C22.8821 28.8709 22.7242 28.6434 22.6065 28.3947C22.4385 28.0515 22.3092 27.6906 22.2211 27.3187C22.1637 27.0558 22.1555 26.908 22.1801 26.908C22.2047 26.908 22.3523 27.4665 22.8032 28.2797C23.0246 28.6575 23.3936 29.1914 23.9758 29.101C24.2888 29.0228 24.5783 28.8699 24.8196 28.6554C25.0609 28.4408 25.2468 28.171 25.3615 27.869V28.0086L24.9761 27.0148C24.3776 25.4624 23.8446 24.0414 23.4674 22.9818V22.9243C23.4855 22.2291 23.5623 21.5367 23.697 20.8545Z" fill="#FF9A6C"/>
<path d="M8.10119 41.2573L5.10832 40.592C3.0083 37.3931 1.59024 33.7943 0.942951 30.021C0.31368 25.6495 -0.00144262 21.2384 4.96458e-06 16.8216L31.1584 0L33.8068 15.1625L8.10119 41.2573Z" fill="#455A64"/>
<path d="M35.4793 22.3661L35.5941 1.95513L33.1343 0.854492L1.07394 18.3579C1.07394 18.3579 0.0407798 31.5819 5.69848 39.9188L7.70739 40.387L35.4793 22.3661Z" fill="white"/>
<path d="M8.10107 41.2577L36.6028 22.9083C36.6028 22.9083 36.1108 4.96138 38.5461 1.7334L4.41126 21.438C4.41126 21.438 1.21342 26.9083 8.10107 41.2577Z" fill="#455A64"/>
<path d="M33.815 1.41309C33.436 1.6956 33.0358 1.94825 32.6178 2.16875L29.2724 4.09075C26.4435 5.69242 22.5241 7.88547 18.1784 10.2839C13.8326 12.6823 9.88041 14.8671 7.01056 16.3702L3.60774 18.1526C3.19858 18.3897 2.77078 18.593 2.32861 18.7604C2.70585 18.4754 3.1063 18.2226 3.52574 18.0047L6.86298 16.0827C9.70003 14.44 13.6194 12.288 17.9652 9.88961C22.311 7.49121 26.2632 5.34744 29.133 3.81148L32.5358 2.00447C32.9477 1.77733 33.3752 1.57971 33.815 1.41309Z" fill="#263238"/>
<path d="M35.209 2.05371C34.8284 2.33375 34.4283 2.58627 34.0119 2.80937L30.6665 4.73137C27.8376 6.37411 23.9182 8.5261 19.5642 10.9245C15.2103 13.3229 11.2745 15.4667 8.40463 17.0026L5.0428 18.8096C4.63137 19.0424 4.20391 19.2455 3.76367 19.4174C4.14091 19.1325 4.54136 18.8797 4.9608 18.6618L8.29803 16.7398C11.1269 15.097 15.0545 12.9451 19.4003 10.5467C23.746 8.14827 27.6982 6.00449 30.5599 4.46032L33.9709 2.66152C34.3669 2.42639 34.7809 2.22315 35.209 2.05371Z" fill="#263238"/>
<path d="M25.7467 36.6577C25.7467 36.6577 29.8465 30.6535 29.8465 30.4399C29.8465 30.2264 28.2475 23.869 27.0996 22.7601C25.9517 21.6513 24.4101 20.296 24.4101 20.296C24.4101 20.296 22.7702 20.7149 23.5902 23.1544C24.4101 25.5938 25.4843 28.0826 25.4843 28.0826L24.0986 30.1524C24.0986 30.1524 18.7606 31.6638 19.1296 36.7809" fill="#FFBF9D"/>
<path d="M19.1871 36.7563C19.1498 36.5449 19.1334 36.3303 19.1379 36.1156C19.1283 35.8573 19.1448 35.5986 19.1871 35.3435C19.225 34.9918 19.2992 34.645 19.4085 34.3086C19.7162 33.3948 20.2361 32.5672 20.9254 31.8938C21.8353 31.0307 22.9245 30.38 24.115 29.9882L24.033 30.0457L25.4023 28.0087V28.1566C24.9104 27.0149 24.4184 25.791 23.9428 24.4933C23.6741 23.8343 23.4549 23.1561 23.2869 22.4645C23.2148 22.0829 23.2288 21.69 23.3279 21.3146C23.4305 20.9153 23.6793 20.5694 24.0248 20.3453C24.1408 20.2684 24.268 20.2102 24.402 20.1729H24.484L24.5578 20.2386L26.0173 21.5856L26.7389 22.2427C26.9905 22.4495 27.2212 22.6806 27.4276 22.9327C27.7697 23.4605 28.0451 24.0289 28.2476 24.6247C28.4772 25.1914 28.6658 25.7582 28.8544 26.2674C29.207 27.368 29.5103 28.4276 29.7645 29.4297C29.8192 29.687 29.8766 29.9334 29.9367 30.1689L29.9777 30.366C29.9777 30.366 29.9777 30.44 29.9777 30.481L29.9285 30.6124L29.7317 30.941L28.9774 32.0827C27.9934 33.5283 27.1817 34.6864 26.6241 35.4832L25.9599 36.3867C25.8883 36.4959 25.8058 36.5977 25.7139 36.6906C25.7653 36.5696 25.8284 36.4541 25.9025 36.3456C26.0665 36.0992 26.2633 35.7871 26.5093 35.401L28.7724 31.9513L29.5021 30.7931L29.6743 30.4975H29.7563C29.6662 30.4975 29.6907 30.4975 29.6825 30.4975V30.4482V30.2839L29.494 29.5529C29.2316 28.559 28.9282 27.5077 28.5592 26.4153C28.3788 25.8731 28.182 25.3146 27.9606 24.7725C27.7509 24.1953 27.4758 23.6442 27.1407 23.1298C26.9407 22.8953 26.7212 22.6783 26.4847 22.4809L25.7713 21.832L24.3118 20.5014H24.4676C24.3721 20.5333 24.2812 20.5775 24.197 20.6328C23.9332 20.8338 23.7364 21.1101 23.6324 21.4253C23.5285 21.7406 23.5224 22.08 23.6148 22.3988C23.7743 23.0712 23.9854 23.7302 24.2462 24.37C24.7136 25.6596 25.1974 26.8834 25.6729 28.0251L25.7139 28.1073L25.6647 28.173C25.1782 28.8958 24.7109 29.5857 24.2626 30.2428V30.2921H24.2052C23.0555 30.6587 21.9983 31.2695 21.1058 32.0827C20.4297 32.7202 19.9081 33.504 19.5807 34.3743C19.351 35.1488 19.2187 35.949 19.1871 36.7563Z" fill="#FF9A6C"/>
<path d="M29.7807 44.781C34.3642 51.5738 35.9959 60.387 41.1206 66.8184C43.5395 69.8574 40.9976 69.3564 43.6707 71.6891C48.861 76.2312 58.143 84.0096 62.6281 88.5271C63.9975 89.907 68.704 87.0897 71.0655 90.8352C71.951 92.2397 65.4406 95.3609 64.8338 96.9133C62.0542 104.026 63.7679 112.881 60.9882 119.994C53.5266 113.423 43.2197 103.731 36.7421 96.3055C30.2644 88.8803 25.7547 81.9233 22.8028 72.6747C20.5708 65.7542 18.7824 58.698 17.4485 51.5491L18.4734 49.3643L17.8011 46.202L28.4605 41.8488L29.7807 44.781Z" fill="#FFBE45"/>
<path d="M140.336 102.236C138.876 99.7224 132.718 95.0488 128.43 93.4307C124.937 92.1083 106.291 89.907 104.085 95.517L103.265 139.633C102.011 144.314 100.748 149.029 100.576 153.81C100.404 158.59 101.396 163.51 104.323 167.395C107.101 171.001 111.18 173.373 115.684 174.001C120.188 174.629 124.758 173.464 128.413 170.754C133.087 167.14 134.973 161.415 136.228 155.97C138.614 145.637 139.581 135.123 140.549 124.643C141.024 119.411 141.508 114.178 141.557 108.938C141.574 106.655 141.492 104.248 140.336 102.236Z" fill="#455A64"/>
<path d="M59.8082 171.887C59.8082 171.887 48.501 204.307 46.7381 210.812C44.9752 217.317 40.1784 234.394 45.2212 242.024C50.2639 249.655 61.0136 248.8 65.7775 247.108C70.5415 245.416 106.472 224.315 106.472 224.315L105.898 212.422L74.1575 216.849L80.9713 185.916L82.0044 168.035L59.8082 171.887Z" fill="#263238"/>
<path d="M75.0504 190.41L77.6169 193.408C77.6169 193.408 70.1962 226.016 70.5242 232.973C70.7948 238.723 70.4422 247.462 80.2981 251.322C84.0841 252.758 88.2015 253.077 92.1629 252.242L106.053 250.419L145.632 244.226L143.533 223.33L101.248 224.217L108.824 202.779C108.824 202.779 113.105 192.636 114.253 185.432C115.401 178.229 117.532 171.173 117.016 170.992C115.064 170.344 111.276 163.436 111.276 163.436L76.5673 162.869L73.5581 182.262L75.0504 190.41Z" fill="#263238"/>
<path d="M76.3793 179.51C76.5105 179.51 76.5679 182.097 76.9943 185.259C77.4206 188.422 78.0438 190.935 77.9208 190.968C77.6606 190.449 77.4756 189.896 77.3714 189.325C77.0114 187.997 76.7375 186.647 76.5515 185.284C76.3676 183.922 76.2663 182.551 76.2481 181.177C76.2167 180.618 76.2608 180.057 76.3793 179.51Z" fill="#455A64"/>
<path d="M115.229 71.9683C113.179 69.1181 109.677 67.5657 106.209 67.2372C102.696 67.0457 99.1809 67.5595 95.8693 68.7485C86.6981 71.689 78.3393 76.7348 71.4592 83.4838C70.2047 84.7159 68.9419 86.104 68.5812 87.8289C68.2204 89.5538 69.1633 91.6729 70.9017 91.9357L92.7453 99.5745C96.6631 99.3022 100.543 98.6279 104.323 97.5621C108.062 96.3711 111.637 94.3424 114.023 91.2212C116.293 88.0633 117.497 84.2619 117.459 80.3709C117.622 77.4041 116.841 74.4621 115.229 71.9683Z" fill="#FFBE45"/>
<path d="M75.5587 88.2643C74.9355 88.486 61.2996 92.1083 59.9385 94.4738C58.5773 96.8394 55.9289 141.292 56.2651 144.126C56.4372 145.555 57.167 148.783 57.8558 151.657C58.6347 154.943 57.782 156.701 56.0519 159.699C54.1168 163.05 52.7228 164.389 53.1082 168.364C53.2558 169.958 55.2401 173.859 55.6993 175.559L54.3136 180.077C54.3136 180.077 67.7527 180.29 89.4815 180.989C111.21 181.687 115.942 182.5 115.942 182.5L115.999 177.572C117.884 173.08 119.174 168.361 119.836 163.534C120.558 158.245 112.654 141.514 112.654 141.514L119.623 101.809L120.296 95.6648C117.547 92.4405 113.946 90.0578 109.907 88.7899C103.076 86.6051 75.5587 88.2643 75.5587 88.2643Z" fill="#FFBE45"/>
<g opacity="0.3">
<path d="M85.9148 130.039C87.4317 133.366 89.3258 137.029 92.8188 138.088C94.4587 138.581 96.2134 138.409 97.919 138.59C100.863 138.91 103.56 140.298 106.266 141.481C110.643 143.403 115.207 144.865 119.886 145.842C122.526 146.393 125.281 146.787 127.905 146.171C130.529 145.555 133.021 143.707 133.727 141.103L85.9148 130.039Z" fill="black"/>
</g>
<path d="M121.353 97.1186C119.947 95.3864 118.361 93.8087 116.622 92.4122C114.801 91.1166 112.85 90.0155 110.801 89.1267C111.458 89.2189 112.099 89.4071 112.703 89.6852C114.193 90.276 115.597 91.0662 116.876 92.0343C118.161 92.999 119.311 94.1316 120.296 95.402C120.737 95.9144 121.094 96.4938 121.353 97.1186Z" fill="#263238"/>
<path d="M91.6135 121.974L105.725 97.6939L111.85 89.4145C108.57 87.5829 105.668 86.6629 102.011 87.5336C101.748 88.1414 99.3211 90.5562 96.5497 95.5666C90.113 107.205 84.7095 119.641 84.7095 119.641L85.4474 129.111L119.763 168.652L122.313 158.796L109.144 148.939C109.144 148.939 93.6716 133.144 93.8602 132.512C94.0488 131.879 91.6135 121.974 91.6135 121.974Z" fill="#455A64"/>
<path d="M59.1596 102.187C59.2744 102.187 58.848 107.829 58.2003 114.753C57.5525 121.678 56.9294 127.296 56.8146 127.288C56.6998 127.279 57.1261 121.645 57.7739 114.712C58.4217 107.78 59.0366 102.178 59.1596 102.187Z" fill="#263238"/>
<path d="M76.043 101.11C75.5247 100.733 75.0564 100.292 74.6491 99.7962C72.5755 97.5086 70.8338 94.9399 69.4752 92.1657C69.1619 91.6057 68.9247 91.0063 68.77 90.3834C68.8848 90.3341 70.1311 92.9707 72.1482 95.9276C74.1653 98.8845 76.1332 100.987 76.043 101.11Z" fill="#263238"/>
<path d="M102.413 86.7197C102.226 87.0132 102.012 87.2882 101.773 87.5411C101.159 88.2798 100.502 88.9819 99.8055 89.6438C97.5155 91.8387 95.0471 93.8388 92.4259 95.6234C89.8154 97.4275 87.0558 99.0048 84.1771 100.338C83.3078 100.749 82.4153 101.108 81.504 101.414C81.1758 101.544 80.8351 101.641 80.4873 101.701C80.7867 101.513 81.1091 101.364 81.4466 101.258C82.0698 100.995 82.9718 100.609 84.0459 100.067C86.869 98.6614 89.5897 97.0585 92.1881 95.2702C94.793 93.4972 97.2725 91.5459 99.6087 89.4302C100.511 88.6089 101.199 87.9189 101.667 87.4343C101.891 87.1714 102.141 86.9319 102.413 86.7197Z" fill="#263238"/>
<path d="M68.2285 146.737C68.2623 146.972 68.2623 147.21 68.2285 147.444C68.1728 148.079 68.0769 148.71 67.9415 149.333C67.041 153.493 64.872 157.271 61.7344 160.142C61.261 160.571 60.7626 160.971 60.2421 161.341C60.0628 161.493 59.8608 161.615 59.6435 161.703C59.5943 161.637 60.3897 161.038 61.5212 159.92C64.494 156.985 66.6116 153.294 67.6463 149.243C68.0317 147.723 68.1793 146.729 68.2285 146.737Z" fill="#263238"/>
<path d="M101.322 162.015C100.747 161.561 100.222 161.046 99.756 160.479C98.5297 159.189 97.4917 157.732 96.6729 156.151C95.8538 154.544 95.4988 152.741 95.648 150.943C95.6967 150.4 95.8209 149.867 96.017 149.358C96.1564 149.005 96.2629 148.824 96.2875 148.832C96.1341 149.537 96.0191 150.25 95.9432 150.968C95.8934 152.7 96.2768 154.416 97.0583 155.962C97.8685 157.506 98.8475 158.955 99.9774 160.282C100.474 160.821 100.924 161.4 101.322 162.015Z" fill="#263238"/>
<path d="M111.366 176.61C111.187 176.634 111.005 176.634 110.825 176.61L109.275 176.479L103.601 175.986C98.8045 175.584 92.171 175.165 84.8324 174.885C77.4938 174.606 70.844 174.672 66.0308 174.754L60.3321 174.877H58.7824C58.6026 174.898 58.421 174.898 58.2412 174.877C58.4163 174.838 58.5948 174.816 58.7742 174.811L60.3239 174.705C61.6686 174.614 63.6037 174.524 66.0226 174.442C70.8357 174.278 77.502 174.212 84.8816 174.442C92.2612 174.672 98.8619 175.189 103.659 175.666C106.053 175.904 107.996 176.117 109.325 176.298L110.866 176.503C111.035 176.525 111.203 176.561 111.366 176.61Z" fill="#263238"/>
<path d="M91.8107 145.464C91.8107 145.53 90.5889 145.185 88.6293 144.766C86.0795 144.206 83.4926 143.833 80.8889 143.649C78.2835 143.479 75.6694 143.496 73.0665 143.698C71.0658 143.846 69.8358 144.027 69.7866 143.953C70.0521 143.856 70.3269 143.787 70.6066 143.747C71.1641 143.632 71.9677 143.509 72.9763 143.394C75.5897 143.1 78.2245 143.045 80.8479 143.23C83.4763 143.409 86.0833 143.824 88.6375 144.47C89.6132 144.717 90.3921 144.955 90.9251 145.135C91.232 145.21 91.5291 145.321 91.8107 145.464Z" fill="#263238"/>
<path d="M120.312 95.624C120.312 95.624 134.497 113.029 136.646 116.98C138.794 120.93 142.927 130.335 141.811 134.467C140.696 138.598 137.81 142.401 133.612 143.617C129.414 144.832 115.573 141.407 115.573 141.407C115.573 141.407 116.893 127.69 117.352 128.265C117.811 128.84 121.009 127.28 121.009 127.28L113.277 119.863L112.687 107.329L120.312 95.624Z" fill="#FFBE45"/>
<path d="M133.932 127.452C131.708 126.931 129.434 126.655 127.151 126.63C124.866 126.748 122.601 127.111 120.394 127.715C120.983 127.37 121.618 127.113 122.28 126.951C125.452 126.019 128.816 125.953 132.021 126.762C132.688 126.9 133.331 127.132 133.932 127.452Z" fill="#263238"/>
<path d="M119.328 104.823C119.343 105.098 119.324 105.374 119.271 105.644C119.213 106.17 119.115 106.926 118.976 107.854C118.697 109.718 118.262 112.289 117.713 115.107C117.163 117.924 116.614 120.478 116.171 122.31C115.958 123.222 115.77 123.953 115.63 124.47C115.582 124.742 115.494 125.005 115.368 125.251C115.366 124.974 115.399 124.698 115.466 124.429C115.581 123.813 115.72 123.082 115.876 122.236C116.262 120.281 116.753 117.784 117.295 115.016C117.836 112.248 118.303 109.76 118.672 107.796C118.844 106.975 118.992 106.219 119.107 105.612C119.144 105.34 119.219 105.075 119.328 104.823Z" fill="#263238"/>
<g opacity="0.3">
<path d="M106.356 85.1923C106.126 85.0144 105.853 84.9008 105.565 84.8633C105.277 84.8258 104.984 84.8656 104.716 84.9788C104.17 85.2 103.676 85.5329 103.265 85.9562C97.8288 91.2458 93.6634 95.6237 85.3982 99.6073C91.4659 97.8003 100.453 93.981 105.651 88.486C106.115 88.054 106.481 87.5275 106.725 86.9418C106.839 86.6457 106.865 86.3229 106.799 86.0124C106.734 85.7019 106.58 85.4171 106.356 85.1923Z" fill="black"/>
</g>
<path d="M98.5178 124.815C98.5178 124.815 97.3288 118.844 96.8286 118.022C96.3285 117.201 87.5057 115.739 87.5057 115.739C87.5057 115.739 82.7336 115.887 82.8238 117.883C82.914 119.879 83.8733 120.232 83.8733 120.232C83.8733 120.232 82.299 121.267 82.5286 122.45C82.7582 123.632 83.1928 123.862 83.1928 123.862C82.8738 124.005 82.614 124.254 82.4571 124.567C82.3002 124.88 82.256 125.237 82.3318 125.579C82.5985 126.387 83.0737 127.109 83.7093 127.674C83.5518 127.972 83.5 128.314 83.5626 128.646C83.6252 128.977 83.7984 129.277 84.0537 129.497C84.8181 130.126 85.7294 130.55 86.7022 130.729C86.7022 130.729 90.556 135.345 92.1877 135.501C93.8194 135.657 99.0179 135.501 99.0179 135.501L115.614 140.881L117.032 129.152L98.5178 124.815Z" fill="#FFBF9D"/>
<path d="M88.3256 120.092C87.5779 120.325 86.7954 120.425 86.0133 120.388C85.2377 120.48 84.4519 120.433 83.6929 120.248C85.2151 119.917 86.7846 119.864 88.3256 120.092Z" fill="#FF9A6C"/>
<path d="M87.2272 123.92C86.6167 124.145 85.9649 124.235 85.3166 124.183C84.6727 124.266 84.0186 124.21 83.3979 124.019C84.0073 123.79 84.66 123.7 85.3085 123.756C85.9524 123.675 86.6063 123.731 87.2272 123.92Z" fill="#FF9A6C"/>
<path d="M87.4403 127.139C87.4403 127.263 86.6614 127.443 85.661 127.558C85.0595 127.698 84.4341 127.698 83.8325 127.558C84.3866 127.286 84.9948 127.143 85.6118 127.139C86.2133 126.999 86.8389 126.999 87.4403 127.139Z" fill="#FF9A6C"/>
<path d="M88.0878 126.048C88.0386 126.048 87.9238 125.949 87.8746 125.703C87.82 125.374 87.8966 125.038 88.0878 124.766C88.2686 124.489 88.5417 124.285 88.8586 124.191C89.0964 124.134 89.2521 124.191 89.2603 124.232C89.2685 124.273 88.7684 124.495 88.4404 124.996C88.1124 125.497 88.1944 125.998 88.0878 126.048Z" fill="#FF9A6C"/>
<path d="M90.2611 122.975C90.2119 122.975 90.1135 122.893 90.0643 122.688C90.0097 122.403 90.0686 122.108 90.2283 121.866C90.3726 121.629 90.5964 121.452 90.8597 121.365C91.0647 121.308 91.1959 121.365 91.2041 121.365C91.2123 121.365 90.8351 121.653 90.5891 122.064C90.3431 122.474 90.3759 122.926 90.2611 122.975Z" fill="#FF9A6C"/>
<path d="M91.9583 118.868C91.8435 118.868 91.6959 118.441 91.9993 117.998C92.3027 117.554 92.7537 117.521 92.7783 117.628C92.8029 117.735 92.5487 117.932 92.3519 118.244C92.1551 118.556 92.0813 118.852 91.9583 118.868Z" fill="#FF9A6C"/>
<path d="M98.3046 128.503C98.1229 127.922 98.0725 127.308 98.157 126.705C98.1184 126.095 98.2136 125.483 98.4358 124.914C98.6304 125.496 98.681 126.116 98.5834 126.721C98.5178 127.715 98.4276 128.52 98.3046 128.503Z" fill="#FF9A6C"/>
<g opacity="0.3">
<path d="M102.314 71.9681C101.793 71.7592 101.22 71.719 100.675 71.8531C99.1708 72.0858 97.7007 72.4995 96.2959 73.0851C95.5278 73.3251 94.8724 73.8358 94.451 74.5225C94.2518 75.0457 94.176 75.6079 94.2296 76.1652C94.2952 79.6369 94.3636 83.1085 94.4346 86.5802L95.4268 85.4549C98.1968 82.6148 100.559 79.4026 102.446 75.9106C102.839 75.2877 103.093 74.5874 103.192 73.8572C103.242 73.4912 103.186 73.1183 103.031 72.7832C102.875 72.4482 102.626 72.1651 102.314 71.9681Z" fill="black"/>
</g>
<path d="M94.172 74.3917C94.172 74.3917 94.2786 74.2685 94.5164 74.0631C96.2033 72.7177 98.2417 71.8878 100.387 71.6729C100.946 71.558 101.52 71.5385 102.085 71.6154C102.415 71.6661 102.723 71.8119 102.972 72.035C103.221 72.2581 103.4 72.549 103.487 72.8721C103.757 74.2603 102.913 75.517 102.208 76.6751C97.7606 84.0207 91.9587 90.4514 85.1115 95.6241C83.4224 96.8972 81.9957 97.85 81.0117 98.4824L79.8474 99.1806C79.7176 99.2714 79.5772 99.3459 79.4292 99.4024C79.4292 99.4024 79.544 99.2874 79.7982 99.1067L80.9215 98.3428C81.8891 97.6693 83.2912 96.7 84.9475 95.3859C89.2734 92.0074 93.2041 88.1499 96.6647 83.8867C98.5609 81.5364 100.305 79.0672 101.888 76.4944C102.263 75.9375 102.594 75.3526 102.88 74.7449C103.148 74.2006 103.245 73.5878 103.159 72.9871C103.092 72.7249 102.95 72.4881 102.75 72.3056C102.551 72.1232 102.302 72.0032 102.035 71.9604C101.507 71.8836 100.969 71.8975 100.445 72.0015C98.7968 72.1717 97.198 72.6628 95.7381 73.4471C94.6968 74.0056 94.1966 74.4245 94.172 74.3917Z" fill="#263238"/>
<path d="M80.0687 43.4262L79.2488 43.4919C75.2922 43.8426 71.6124 45.6725 68.9414 48.6174C66.2705 51.5624 64.8041 55.4066 64.8339 59.3854C64.8913 67.0652 64.8995 74.014 65.3095 78.0962C66.1295 86.5563 74.821 87.4433 74.821 87.4433C74.821 87.4433 75.026 90.8767 75.1408 93.3736L78.4206 100.281C84.2423 96.0431 90.72 90.696 94.4344 86.5645L94.0818 59.3854C94.0654 50.531 88.9079 43.1551 80.0687 43.4262Z" fill="#FFBF9D"/>
<path d="M74.8374 87.4267C78.7402 87.0671 82.4588 85.5965 85.5543 83.1885C85.5543 83.1885 83.4634 89.7594 74.9686 89.7594L74.8374 87.4267Z" fill="#FF9A6C"/>
<path d="M69.0732 66.2847C69.1004 66.6006 69.249 66.8936 69.4876 67.102C69.7262 67.3104 70.0362 67.4178 70.3524 67.4018C70.5039 67.3965 70.6528 67.3612 70.7906 67.298C70.9285 67.2347 71.0524 67.1447 71.1553 67.0332C71.2582 66.9217 71.3381 66.7909 71.3903 66.6484C71.4424 66.5058 71.4659 66.3543 71.4593 66.2026C71.4362 65.8881 71.2911 65.5951 71.0551 65.3864C70.8191 65.1776 70.511 65.0696 70.1966 65.0855C69.8892 65.0962 69.5985 65.2284 69.388 65.4531C69.1776 65.6777 69.0644 65.9767 69.0732 66.2847Z" fill="#263238"/>
<path d="M66.9661 62.9661C67.1301 63.1057 67.9828 62.3501 69.2866 62.2351C70.5903 62.1201 71.5907 62.6951 71.7465 62.5226C71.9022 62.3501 71.6317 62.1694 71.1889 61.9065C70.5912 61.5685 69.9043 61.4222 69.221 61.4876C68.5453 61.5448 67.9051 61.8151 67.3925 62.2597C66.9989 62.6047 66.8841 62.9004 66.9661 62.9661Z" fill="#263238"/>
<path d="M80.7576 65.7341C80.7807 66.0501 80.927 66.3443 81.1647 66.5533C81.4025 66.7623 81.7127 66.8692 82.0285 66.8511C82.1828 66.849 82.3352 66.8162 82.4767 66.7546C82.6183 66.6929 82.7462 66.6037 82.853 66.4922C82.9598 66.3806 83.0434 66.2488 83.0989 66.1046C83.1545 65.9603 83.1808 65.8065 83.1764 65.6519C83.1513 65.3367 83.0044 65.0438 82.7671 64.8352C82.5299 64.6266 82.2208 64.5189 81.9055 64.5349C81.7509 64.5359 81.598 64.5679 81.4559 64.6292C81.3139 64.6904 81.1855 64.7796 81.0785 64.8914C80.9714 65.0032 80.8879 65.1354 80.8328 65.2802C80.7777 65.4249 80.7521 65.5793 80.7576 65.7341Z" fill="#263238"/>
<path d="M79.7243 62.1366C79.8883 62.2844 80.7411 61.5205 82.0366 61.4138C83.3321 61.307 84.3489 61.8655 84.4965 61.693C84.6441 61.5205 84.3899 61.3481 83.9389 61.0852C83.3462 60.7414 82.6609 60.592 81.9792 60.6581C81.2963 60.7239 80.654 61.0125 80.1507 61.4795C79.7571 61.7752 79.6587 62.0709 79.7243 62.1366Z" fill="#263238"/>
<path d="M75.9445 72.5433C75.2416 72.392 74.5228 72.3285 73.8044 72.3543C73.4682 72.3543 73.1484 72.3051 73.0746 72.0833C73.0175 71.7436 73.0632 71.3946 73.2058 71.0812C73.4518 70.2599 73.6978 69.381 73.9684 68.4693C75.0097 64.7485 75.7313 61.693 75.6083 61.6519C75.4853 61.6108 74.4931 64.6006 73.4436 68.3214C73.1976 69.2414 72.9598 70.112 72.7302 70.9498C72.5581 71.3676 72.5378 71.8327 72.6728 72.264C72.7298 72.379 72.8129 72.479 72.9154 72.5561C73.0179 72.6331 73.137 72.685 73.2632 72.7075C73.4538 72.7312 73.6466 72.7312 73.8372 72.7075C74.5437 72.7449 75.2522 72.6897 75.9445 72.5433Z" fill="#263238"/>
<path d="M78.9453 58.104C79.1502 58.4244 80.3802 57.9644 81.9053 57.7919C83.4304 57.6194 84.7424 57.7508 84.8653 57.3894C84.9227 57.2252 84.6358 56.9459 84.0454 56.7241C83.3021 56.4599 82.507 56.3754 81.7249 56.4777C80.9399 56.5713 80.1889 56.8531 79.5356 57.2991C79.06 57.6194 78.8387 57.9562 78.9453 58.104Z" fill="#263238"/>
<path d="M66.54 59.1468C66.8269 59.4179 67.8683 59.0318 69.1392 58.925C70.4102 58.8183 71.5007 58.925 71.7303 58.6293C71.8287 58.4651 71.6319 58.1858 71.1399 57.9394C70.4728 57.6258 69.7327 57.5008 68.9998 57.578C68.2674 57.64 67.565 57.8982 66.9663 58.3254C66.5399 58.6951 66.4416 59.0072 66.54 59.1468Z" fill="#263238"/>
<path d="M93.9507 65.7092C94.0901 65.6353 99.6084 63.4751 99.9364 69.2821C100.264 75.0892 94.3771 74.2103 94.3525 74.0543C94.3279 73.8982 93.9507 65.7092 93.9507 65.7092Z" fill="#FFBF9D"/>
<path d="M96.0006 71.7548C96.0006 71.7548 96.1071 71.8205 96.2793 71.8862C96.5213 71.984 96.7917 71.984 97.0337 71.8862C97.3981 71.631 97.6866 71.2816 97.8685 70.8751C98.0504 70.4687 98.119 70.0205 98.0669 69.5782C98.0515 69.0786 97.9284 68.5883 97.7061 68.1408C97.6381 67.9619 97.5281 67.8021 97.3854 67.6748C97.2426 67.5476 97.0714 67.4567 96.8861 67.4098C96.7679 67.3839 96.6443 67.4011 96.5375 67.4583C96.4308 67.5155 96.348 67.609 96.3039 67.7219C96.2383 67.8862 96.304 68.0012 96.2466 68.0094C96.1892 68.0176 96.1153 67.919 96.1481 67.6808C96.1784 67.5358 96.2529 67.4038 96.3613 67.303C96.4365 67.2382 96.5238 67.1888 96.618 67.1578C96.7123 67.1268 96.8118 67.1148 96.9107 67.1223C97.1482 67.155 97.3736 67.2475 97.5657 67.3912C97.7579 67.5348 97.9105 67.7249 98.0095 67.9437C98.288 68.4293 98.4402 68.9772 98.4522 69.5371C98.4522 70.7117 97.9438 71.837 97.1239 72.1244C96.9705 72.1783 96.8071 72.1974 96.6455 72.1803C96.4838 72.1633 96.328 72.1105 96.1892 72.0259C96.058 71.8944 95.9842 71.763 96.0006 71.7548Z" fill="#FF9A6C"/>
<path d="M52.7806 52.2962C52.8684 51.956 53.0825 51.6623 53.3792 51.4748C54.0399 51.1258 54.7812 50.9586 55.5274 50.9902C57.3705 50.8474 59.1568 50.2856 60.7506 49.3475C60.154 49.1034 59.6003 48.7651 59.1107 48.3454C58.5957 47.9233 58.2063 47.3676 57.9851 46.739C57.7638 46.1104 57.7192 45.4329 57.8561 44.7806C57.8783 44.6595 57.9275 44.545 57.9999 44.4455C58.0722 44.3459 58.166 44.264 58.2743 44.2057C58.6433 44.0661 58.9959 44.4192 59.2747 44.6903C59.6329 45.1272 60.1027 45.4588 60.634 45.6497C61.1653 45.8406 61.7383 45.8837 62.2921 45.7745C63.0659 45.6663 63.8056 45.3857 64.4568 44.9531L64.5306 44.8628C64.8094 44.5342 65.0881 44.2221 65.3505 43.9182C67.4086 41.6184 69.1961 40.0085 71.0902 39.1214C74.3824 37.698 77.999 37.1983 81.5529 37.6758C84.5457 38.2836 87.3336 40.526 87.9239 43.5239C89.4901 42.0291 91.9746 41.8812 94.0408 42.5876H94.09C96.3777 43.2611 97.788 45.5609 98.5834 47.8115C98.6326 47.9347 98.6654 48.0579 98.7064 48.1811C99.5342 49.3505 100.631 50.3028 101.904 50.9573C102.126 51.0723 102.38 51.212 102.421 51.4666C102.462 51.7212 102.265 51.9265 102.076 52.0826C101.553 52.4824 100.948 52.7627 100.305 52.904C100.53 53.4406 100.805 53.9548 101.125 54.4399C101.396 54.8506 101.732 55.3517 101.535 55.8116C101.443 55.9828 101.301 56.1218 101.129 56.2099C100.956 56.298 100.76 56.331 100.568 56.3044C100.188 56.2386 99.8251 56.0961 99.5018 55.8855C99.7805 56.4769 100.068 57.0601 100.322 57.6433C99.5127 57.8333 98.6708 57.8333 97.8619 57.6433C97.5093 59.8117 97.3863 63.8035 96.9189 65.282C95.3856 65.4052 95.0002 65.282 94.2376 65.5613C93.2537 65.9555 93.7374 67.705 92.4091 67.2779C91.7285 67.0644 90.556 64.6003 90.2936 63.935C88.551 59.4966 87.7847 54.7338 88.047 49.9717C87.0582 49.0318 85.8971 48.2926 84.6277 47.7951L84.7343 47.8772C82.3155 47.1955 79.585 46.5384 77.4039 47.7869C75.7148 48.7479 74.7964 50.6206 73.5747 52.1401C72.555 53.5258 71.2527 54.6783 69.7541 55.5209C68.2555 56.3635 66.5951 56.877 64.8832 57.0273C64.6946 59.6063 64.8422 63.8035 64.8832 66.2019L62.5627 61.5366C62.3902 61.2711 62.2315 60.997 62.0871 60.7152L62.0297 60.6331C61.8047 60.1793 61.5556 59.7378 61.2835 59.3107C61.0205 59.5615 60.6752 59.7076 60.3123 59.7217C59.9494 59.7358 59.5939 59.6168 59.3123 59.3871C59.0307 59.1574 58.8423 58.8328 58.7826 58.4739C58.7228 58.1151 58.7958 57.7468 58.9877 57.4379C59.1743 57.1501 59.4038 56.8925 59.6682 56.6741C59.3917 56.9738 59.0426 57.197 58.6548 57.3222C58.267 57.4473 57.8536 57.4702 57.4544 57.3886C57.0592 57.2914 56.7071 57.0666 56.4522 56.7489C56.1973 56.4312 56.0539 56.0384 56.044 55.6309C56.054 55.3581 56.1349 55.0926 56.2787 54.8607C56.4225 54.6287 56.6243 54.4384 56.864 54.3085C55.8183 54.4527 54.7534 54.2811 53.8055 53.8157C53.2398 53.5857 52.6002 53.06 52.7806 52.2962Z" fill="#263238"/>
<path d="M85.3164 44.6825C85.6343 44.904 85.9358 45.1483 86.2184 45.4135C86.9319 46.1873 87.4345 47.1321 87.6779 48.1569C87.8673 48.8574 87.9828 49.5759 88.0223 50.3007C88.0715 51.122 88.0223 51.9434 88.0223 52.814C88.0034 53.7433 88.0362 54.6729 88.1207 55.5985C88.1786 56.0919 88.2718 56.5805 88.3995 57.0605C88.5075 57.5727 88.7414 58.0499 89.08 58.4486C89.2377 58.6048 89.4333 58.7172 89.6475 58.7748C89.8617 58.8324 90.0872 58.8332 90.3018 58.7772C90.7123 58.6759 91.0783 58.4421 91.3431 58.1119C91.766 57.4504 92.0039 56.6874 92.0319 55.9024H91.8597C92.1524 56.5262 92.5335 57.1044 92.9912 57.6191C93.4345 58.1005 94.0445 58.3942 94.6967 58.4404C94.9971 58.4523 95.2949 58.3813 95.5577 58.2351C95.8043 58.0908 95.9994 57.8724 96.1153 57.6108C96.2292 57.3733 96.2773 57.1095 96.2546 56.847C96.2277 56.6038 96.1176 56.3774 95.943 56.2063L95.8611 56.2884C96.4007 56.8377 97.0485 57.2685 97.7634 57.5533C97.9502 57.6292 98.142 57.6923 98.3373 57.7423C98.4051 57.7549 98.4746 57.7549 98.5423 57.7423L98.3455 57.6765L97.788 57.463C97.0928 57.1616 96.4654 56.723 95.943 56.1734L95.8611 56.2638C96.0348 56.4299 96.1484 56.6492 96.184 56.8871C96.2196 57.1251 96.1753 57.3681 96.0579 57.578C95.9453 57.807 95.7687 57.9982 95.5495 58.1283C95.2981 58.2626 95.0136 58.3224 94.7295 58.3008C94.1245 58.2562 93.5589 57.9832 93.147 57.5369C92.7105 57.0416 92.3436 56.489 92.0565 55.8942L91.9171 55.6313L91.8761 55.927C91.8497 56.6767 91.6232 57.4057 91.2201 58.0379C90.9832 58.332 90.6585 58.5421 90.2936 58.6375C90.1106 58.6838 89.9189 58.6824 89.7366 58.6335C89.5544 58.5846 89.3876 58.4899 89.2522 58.3583C88.9379 57.9815 88.721 57.533 88.6208 57.0523C88.4951 56.5833 88.4047 56.1056 88.3503 55.6231C88.2546 54.7065 88.219 53.7846 88.2437 52.8633C88.2437 51.9762 88.2437 51.1302 88.1945 50.3417C88.1479 49.6052 88.0242 48.8757 87.8255 48.1651C87.5625 47.1237 87.0276 46.1712 86.2758 45.4053C86.002 45.1085 85.677 44.8637 85.3164 44.6825Z" fill="#455A64"/>
<path d="M59.5698 54.4809L59.6436 54.5302L59.865 54.678C59.9634 54.7355 60.0864 54.8095 60.234 54.8834C60.4072 54.9749 60.5851 55.0571 60.767 55.1298C61.9336 55.5777 63.1933 55.7273 64.4322 55.5651C66.2784 55.3392 68.0191 54.58 69.4421 53.3803C71.1561 51.8976 72.5509 50.0811 73.5419 48.0414C74.0995 46.9818 74.5422 45.8976 75.0342 44.8873C75.4877 43.9119 76.0756 43.005 76.7807 42.1932C77.4173 41.4589 78.2259 40.8945 79.134 40.5505C79.548 40.406 79.983 40.3311 80.4213 40.3287C80.823 40.3248 81.2232 40.3774 81.6103 40.4848C82.2808 40.672 82.904 40.9995 83.4388 41.4458C83.8454 41.784 84.1943 42.1863 84.4719 42.6368C84.6839 43.0314 84.8543 43.4471 84.9803 43.877C84.982 43.8497 84.982 43.8223 84.9803 43.7949L84.9229 43.5321C84.8335 43.2065 84.7069 42.8923 84.5457 42.5957C84.276 42.13 83.9295 41.7134 83.5208 41.3637C82.9796 40.8874 82.3418 40.5344 81.6513 40.3287C81.2482 40.2158 80.8317 40.1578 80.4131 40.1562C79.9614 40.1591 79.513 40.2339 79.0848 40.378C78.1385 40.7068 77.2918 41.2722 76.6249 42.0208C75.9002 42.8411 75.2981 43.7624 74.8374 44.7559C74.3373 45.7662 73.8945 46.8504 73.3451 47.9018C72.3631 49.9149 70.9887 51.7107 69.3027 53.1832C67.9087 54.3748 66.1999 55.1365 64.383 55.3762C63.1656 55.5501 61.9242 55.4232 60.767 55.0066C60.3596 54.8509 59.9601 54.6755 59.5698 54.4809Z" fill="#455A64"/>
<path d="M58.5864 50.7939C58.6816 50.8724 58.7863 50.9387 58.898 50.991C59.1974 51.1461 59.507 51.2805 59.8246 51.3935C60.2973 51.5607 60.7826 51.6897 61.2759 51.7795C61.8856 51.8796 62.5031 51.9236 63.1208 51.9109C63.7335 51.8932 64.3431 51.8162 64.9411 51.6809C65.4321 51.5706 65.9123 51.4167 66.376 51.221C66.6879 51.0941 66.9895 50.9431 67.278 50.7692C67.3891 50.7093 67.4936 50.6377 67.5896 50.5557C67.5896 50.5557 67.114 50.7939 66.3268 51.0896C65.2965 51.4718 64.2108 51.6826 63.1126 51.7138C62.5091 51.7275 61.9056 51.6891 61.3087 51.5988C60.8226 51.5226 60.343 51.4101 59.8738 51.262C59.0702 51.0074 58.6028 50.761 58.5864 50.7939Z" fill="#455A64"/>
<path d="M81.6182 73.2579C81.567 73.1363 81.4739 73.0372 81.3558 72.9786C81.2755 72.9634 81.1929 72.9658 81.1137 72.9857C81.0344 73.0055 80.9604 73.0423 80.8967 73.0936L77.7808 74.917L77.2888 75.1798C77.4407 75.7013 77.7304 76.172 78.1273 76.5422C78.5242 76.9123 79.0136 77.1681 79.5437 77.2826C80.0774 77.3736 80.6262 77.2748 81.0949 77.0033C81.5636 76.7318 81.9227 76.3047 82.1102 75.7959C82.2871 74.918 82.1102 74.0056 81.6182 73.2579Z" fill="#FF9A6C"/>
<path d="M79.913 77.4143C80.3753 77.2363 80.8069 76.9869 81.1921 76.675C81.5779 76.324 81.8397 75.8571 81.9383 75.3444C82.0513 74.7196 81.9191 74.0752 81.5693 73.5456C81.4732 73.3986 81.3634 73.2611 81.2413 73.135H81.4791C80.1304 73.9164 78.7177 74.5814 77.2563 75.1227C78.5288 74.2233 79.8757 73.4347 81.2823 72.7653L81.4217 72.6914L81.5283 72.7982C81.6814 72.9397 81.8164 73.0997 81.9301 73.2746C82.3335 73.8989 82.4749 74.6574 82.3237 75.3855C82.1885 75.9725 81.859 76.4965 81.3889 76.8722C81.1963 77.0636 80.9648 77.2111 80.71 77.3046C80.4553 77.3982 80.1835 77.4356 79.913 77.4143Z" fill="#263238"/>
<g opacity="0.3">
<path d="M56.9214 180.126C59.7434 182.161 63.072 183.375 66.5395 183.633C69.999 183.776 73.4641 183.688 76.912 183.371C89.3179 182.664 101.953 183.765 114.343 184.775L114.835 182.377L91.1382 181.046L56.9214 180.126Z" fill="black"/>
</g>
<g opacity="0.3">
<path d="M64.4895 168.413L64.7191 168.668C68.3351 170.861 72.7301 171.231 76.9447 171.543C80.3368 171.905 83.7566 171.927 87.1531 171.609C90.5742 171.276 93.8153 169.916 96.4514 167.707C85.9713 170.236 75.0708 170.477 64.4895 168.413Z" fill="black"/>
</g>
</svg>
