<svg width="190" height="208" viewBox="0 0 190 208" fill="none" xmlns="http://www.w3.org/2000/svg">
<g clip-path="url(#clip0_1_195)">
<path d="M151.101 152.864C151.101 152.864 155.542 107.573 155.547 107.531C155.897 103.97 122.605 85.8361 119 83.4616C112.024 78.8682 104.381 71.8855 96.8469 68.4201C93.0265 66.6639 71.4909 65.1006 71.3048 72.9342C71.3048 72.9392 70.8335 95.6832 70.8335 95.6832L78.6703 104.477L87.2686 128.353L90.2307 136.729L110.767 156.933L121.486 196.615L155.177 192.95L151.101 152.861V152.864Z" fill="#EDD0B3"/>
<path d="M110.779 189.583L107.812 163.561L159.214 144.582L168.152 176.307L110.955 193.333L110.779 189.583Z" fill="white"/>
<path d="M170.127 159.948C170.127 159.948 117.256 190.073 106.324 192.925L105.158 220H190L170.127 159.945V159.948Z" fill="#2E4661"/>
<path d="M118.34 175.009C119.237 173.666 118.872 171.852 117.525 170.958C116.178 170.064 114.359 170.428 113.462 171.771C112.566 173.114 112.931 174.928 114.278 175.822C115.625 176.716 117.443 176.352 118.34 175.009Z" fill="#59595B"/>
<path d="M2.064 37.5674L0 55.2654L29.4468 123.569L179.003 82.2318L182.23 68.3504L2.064 37.5674Z" fill="#6A8678"/>
<path d="M182.23 68.3508L33.8204 110.45L2.06396 37.5679L151.124 0L182.23 68.3508Z" fill="#CDDBA6"/>
<path d="M177.675 66.7603L35.4849 106.925L6.57642 39.4823L7.12219 39.3438L149.375 3.44312L177.675 66.7579V66.7603ZM36.1348 105.577L176.261 66.0579L148.821 4.65019L8.11201 40.2269L36.1348 105.577Z" fill="#6A8678"/>
<path d="M130.176 8.72412C130.176 8.72412 146.703 8.02164 155.646 25.9003L169.752 57.8656C169.752 57.8656 172.295 63.4632 166.904 67.4554L161.533 70.3494L176.968 66.4116L149.099 4.05164L130.179 8.72907L130.176 8.72412Z" fill="#6A8678"/>
<path d="M27.812 34.8544C27.812 34.8544 12.6594 42.3714 20.1985 61.7317L35.3585 95.4012C35.3585 95.4012 37.9509 101.338 46.0432 101.669L53.106 101.123L36.398 106.277L7.05786 40.2417L27.812 34.8544Z" fill="#6A8678"/>
<path d="M58.1021 60.866C59.8883 64.9151 58.0947 69.0756 54.0832 70.159C50.0594 71.2449 45.3336 68.8233 43.5449 64.7494C41.7563 60.678 43.5846 56.5175 47.6134 55.4564C51.6298 54.3977 56.3209 56.8193 58.1046 60.866H58.1021Z" fill="#6A8678"/>
<path d="M49.263 85.1737L47.1494 85.7549L44.6265 79.9991L46.7401 79.4227L49.263 85.1737Z" fill="#6A8678"/>
<path d="M52.6892 84.2308L50.5806 84.8096L48.0576 79.0636L50.1663 78.4873L52.6892 84.2308Z" fill="#6A8678"/>
<path d="M56.1051 83.2893L54.0039 83.8681L51.481 78.1295L53.5847 77.5557L56.1051 83.2893Z" fill="#6A8678"/>
<path d="M59.511 82.3513L57.4172 82.9277L54.8943 77.1965L56.9905 76.6251L59.511 82.3513Z" fill="#6A8678"/>
<path d="M62.9096 81.4136L60.8208 81.9899L58.3003 76.2686L60.3916 75.6973L62.9096 81.4136Z" fill="#6A8678"/>
<path d="M66.2986 80.4813L64.2148 81.0552L61.6968 75.3414L63.7806 74.7725L66.2986 80.4813Z" fill="#6A8678"/>
<path d="M69.6799 79.5513L67.601 80.1227L65.083 74.4163L67.1619 73.8499L69.6799 79.5513Z" fill="#6A8678"/>
<path d="M73.0487 78.6213L70.9772 79.1926L68.4592 73.4961L70.5332 72.9297L73.0487 78.6213Z" fill="#6A8678"/>
<path d="M123.272 32.2297L121.297 32.7467L120.523 31.0251L122.498 30.5106L123.272 32.2297Z" fill="#6A8678"/>
<path d="M126.472 31.3911L124.505 31.9056L123.731 30.189L125.701 29.672L126.472 31.3911Z" fill="#6A8678"/>
<path d="M129.667 30.553L127.703 31.0675L126.929 29.3509L128.893 28.8389L129.667 30.553Z" fill="#6A8678"/>
<path d="M132.85 29.719L130.893 30.2311L130.119 28.5169L132.079 28.0049L132.85 29.719Z" fill="#6A8678"/>
<path d="M136.028 28.8855L134.074 29.3975L133.302 27.6858L135.254 27.1738L136.028 28.8855Z" fill="#6A8678"/>
<path d="M139.196 28.0539L137.246 28.5635L136.475 26.8543L138.424 26.3447L139.196 28.0539Z" fill="#6A8678"/>
<path d="M142.357 27.2253L140.412 27.7348L139.64 26.0281L141.585 25.5186L142.357 27.2253Z" fill="#6A8678"/>
<path d="M145.507 26.3996L143.57 26.9066L142.798 25.2024L144.736 24.6953L145.507 26.3996Z" fill="#6A8678"/>
<path d="M132.047 78.5241L85.021 91.7871L83.4531 88.2401L130.486 75.0488L132.047 78.5241Z" fill="#6A8678"/>
<path d="M109.033 86.0518C102.908 87.7808 95.6066 85.9504 88.4893 80.8821C81.4662 75.8807 75.4652 68.3166 71.6101 59.6074C67.7624 50.9154 66.5171 42.1344 68.0899 34.8919C69.68 27.5752 73.9544 22.6999 80.1042 21.1416C86.2243 19.5907 93.4384 21.5201 100.429 26.5636C107.301 31.518 113.183 38.9312 117.006 47.4525C120.836 55.9935 122.166 64.6756 120.737 71.9156C119.278 79.3015 115.128 84.3302 109.033 86.0518ZM80.7641 22.6232C69.0301 25.6038 65.5744 41.9885 73.1903 59.1819C80.8361 76.4446 96.6733 87.8401 108.363 84.5454C119.943 81.2828 123.081 64.8092 115.48 47.8606C107.909 30.9763 92.3915 19.6723 80.7666 22.6232H80.7641Z" fill="#6A8678"/>
<path d="M116.195 47.7617C123.992 65.1456 120.672 82.015 108.648 85.4062C96.5072 88.8321 80.1936 77.2189 72.3494 59.501C64.5374 41.8574 68.1966 25.0795 80.3846 21.9851C92.4561 18.9229 108.43 30.4446 116.195 47.7592V47.7617Z" fill="#B9C199"/>
<path d="M32.0515 116.063L32.0044 115.956L0.927734 47.4891L1.17581 47.3778L32.2053 115.739L180.454 75.4078L180.526 75.67L32.0515 116.063Z" fill="#CDDBA6"/>
<path d="M31.4785 118.615L31.4661 118.588L0.389404 50.1234L0.451424 50.0938L31.5157 118.534L179.849 78.1806L179.868 78.2449L31.4785 118.615Z" fill="#CDDBA6"/>
<path d="M69.2856 20.5949L102.156 91.2807L98.1544 104.806L114.738 100.143L117.884 86.8679L84.2745 16.9365L69.2856 20.5949Z" fill="#EEE3D1"/>
<path d="M150.151 130.666C154.215 128.353 156.06 117.609 156.187 112.889C156.338 107.296 156.49 101.706 156.641 96.1136C156.705 93.7539 156.763 91.3471 156.075 89.0863C155.542 87.3375 154.584 85.752 153.637 84.1863C151.049 79.917 148.462 75.6477 145.874 71.3759C143.882 68.0911 139.481 61.3161 134.686 63.0426C129.7 64.8384 131.9 71.8533 134.044 74.96C136.028 77.8392 138.65 80.4463 139.491 83.8375C140.531 88.0252 138.621 92.292 137.477 96.4525C134.639 106.782 136.743 118.346 143.036 127.025C145.917 130.998 148.271 131.732 150.151 130.664V130.666Z" fill="#EDD0B3"/>
</g>
<defs>
<clipPath id="clip0_1_195">
<rect width="190" height="220" fill="white"/>
</clipPath>
</defs>
</svg>
