<svg width="172" height="123" viewBox="0 0 172 123" fill="none" xmlns="http://www.w3.org/2000/svg">
<path d="M30.482 7.99833C23.7645 16.8788 23.3395 30.0283 23.3395 30.0283C23.3395 30.0283 17.6687 43.9834 20.7578 50.6882C21.5935 52.5975 22.8795 54.2758 24.5056 55.5794C26.1318 56.883 28.0497 57.773 30.095 58.1732L28.8264 54.4054C28.8264 54.4054 32.0488 59.0232 40.739 59.8415C49.4292 60.6598 60.1746 56.4859 65.541 52.7371C68.7282 50.5366 71.2898 47.5466 72.9752 44.0596L71.6051 49.9968C71.6051 49.9968 79.7244 48.5506 83.3337 39.2133C86.943 29.8761 71.2816 19.3527 69.6958 16.8344C68.11 14.3162 63.8537 -5.04969 43.7393 1.25548C43.7266 1.2301 35.1062 1.87712 30.482 7.99833Z" fill="#263238"/>
<path d="M27.0563 58.0907C24.5698 57.3232 22.3053 55.23 20.8019 53.1621C19.185 50.9904 18.343 48.3393 18.4105 45.6327C18.531 42.3849 19.806 39.3529 21.0429 36.3969C22.3116 33.3395 23.8276 30.3645 25.0519 27.2944C25.1153 27.1231 24.8616 27.028 24.7664 27.1675C23.2397 29.5746 21.8525 32.0674 20.6116 34.6335C19.3047 37.0033 18.2787 39.5174 17.5542 42.1249C16.8779 44.5283 16.9043 47.0751 17.6303 49.464C18.312 51.4038 19.4599 53.1465 20.9732 54.5385C22.7556 56.2132 24.8616 57.152 26.9739 58.3064C26.988 58.3118 27.0031 58.3144 27.0183 58.314C27.0334 58.3136 27.0484 58.3102 27.0622 58.304C27.076 58.2978 27.0885 58.289 27.0989 58.2779C27.1094 58.2669 27.1175 58.254 27.1229 58.2398C27.1283 58.2257 27.1309 58.2106 27.1305 58.1954C27.1301 58.1803 27.1267 58.1653 27.1205 58.1515C27.1143 58.1376 27.1055 58.1252 27.0945 58.1147C27.0834 58.1043 27.0705 58.0962 27.0563 58.0907Z" fill="#263238"/>
<path d="M83.7903 30.0154C80.2952 23.1584 73.1654 19.5047 68.3319 13.7831C65.7121 10.6813 63.5237 7.14809 60.3267 4.58543C60.2379 4.522 60.1237 4.66789 60.2062 4.73767C62.864 7.07832 64.6465 10.085 66.7207 12.9014C68.9039 15.6778 71.3605 18.2279 74.0535 20.5133C78.8299 24.8267 84.5388 29.9203 84.5769 36.9042C84.5769 40.1329 83.2194 43.8817 80.1366 45.347C80.0224 45.3977 80.1366 45.5944 80.2381 45.5246C81.445 44.8305 82.4978 43.8976 83.3321 42.783C84.1664 41.6684 84.7648 40.3954 85.0907 39.0418C85.7582 35.9746 85.2964 32.7695 83.7903 30.0154Z" fill="#263238"/>
<path d="M84.3677 31.9126C84.1978 29.1517 83.1786 26.5108 81.4498 24.3515C79.6991 22.2265 77.2252 20.869 74.7831 19.6955C71.9603 18.3444 69.0171 17.1075 66.9936 14.621C66.9111 14.5131 66.7652 14.659 66.8477 14.7605C70.0764 18.8709 75.3095 20.2601 79.1853 23.5522C83.6255 27.3201 84.5136 33.5936 82.5852 38.8965C81.3395 42.1357 79.3465 45.035 76.7685 47.3583C76.7241 47.3964 76.7685 47.4662 76.8319 47.4218C81.2468 43.5397 84.8371 38.0275 84.3677 31.9126Z" fill="#263238"/>
<path d="M49.1247 62.9944C55.8041 70.01 90.1273 103.198 105.11 100.102C123.271 96.3534 144.362 85.3035 152.595 77.4506C157.213 73.0547 134.955 50.809 130.312 54.2407C122.998 59.6578 105.376 68.6652 102.275 69.9339C99.1727 71.2025 72.9308 57.6724 57.631 52.3822C43.8535 47.5867 44.4244 58.053 49.1247 62.9944Z" fill="#DD6A57"/>
<path d="M165.148 67.4724C161.12 72.8451 148.58 80.6029 144.85 81.3133C141.12 82.0238 127.203 61.1419 128.453 57.4311C129.702 53.7203 144.672 36.6951 151.288 34.9888C157.904 33.2824 169.329 61.9094 165.148 67.4724Z" fill="#DD6A57"/>
<path d="M130.477 54.0756C130.477 54.0756 132.855 45.6708 132.38 37.9955C131.961 31.5381 130.61 21.9979 134.073 21.6427C141.184 20.9132 144.546 44.7066 144.546 44.7066C144.546 44.7066 144.337 55.4457 137.359 56.7587C132.963 57.6405 130.477 54.0756 130.477 54.0756Z" fill="#DD6A57"/>
<path d="M141.615 39.6638C141.26 43.2033 145.637 41.5985 145.637 41.5985C145.637 41.5985 139.928 45.4044 140.943 49.2104C141.958 52.8577 147.172 50.7264 147.553 50.5805C147.248 50.7898 142.066 54.4499 143.512 58.1479C145.015 61.9919 149.855 58.9599 150.198 58.7823C149.969 59.0614 147.07 62.861 148.809 65.4236C151.79 69.8258 159.478 60.3491 163.772 60.0446C163.772 60.0446 165.073 67.2759 165.149 67.4788C165.149 67.4788 172.646 58.5983 171.955 52.807C171.866 51.965 171.493 51.1785 170.897 50.5775C170.3 49.9766 169.517 49.5972 168.675 49.5021C168.675 49.5021 171.409 46.9014 170.369 43.9518C169.83 42.4358 166.925 41.9537 166.925 41.9537C166.925 41.9537 169.031 39.7843 167.94 37.2153C167.071 35.1665 164.299 35.0015 164.299 35.0015C164.299 35.0015 165.345 31.9758 163.785 30.168C160.632 26.508 142.37 32.0836 141.615 39.6638Z" fill="#DD6A57"/>
<path d="M163.861 34.8998C163.874 34.8998 163.887 34.8945 163.897 34.885C163.906 34.8755 163.912 34.8625 163.912 34.8491C163.912 34.8356 163.906 34.8227 163.897 34.8132C163.887 34.8037 163.874 34.7983 163.861 34.7983C157.41 35.1662 150.432 37.5513 145.396 41.6554C145.231 41.7949 145.396 42.1184 145.586 42.0042C151.58 38.7629 157.169 36.3715 163.861 34.8998Z" fill="#263238"/>
<path d="M167.007 41.8839C167.077 41.8839 167.052 41.7507 167.007 41.7507C160.359 42.1694 152.583 45.0682 147.343 50.4853C147.166 50.6693 147.191 51.0182 147.413 50.8215C151.13 47.485 160.975 43.178 167.007 41.8839Z" fill="#263238"/>
<path d="M149.982 59.277C155.215 54.2785 161.527 51.4558 168.422 49.4957C168.51 49.4957 168.466 49.3435 168.384 49.3435C164.749 49.3879 160.48 51.0942 157.277 52.7054C154.273 54.1494 151.698 56.3509 149.804 59.093C149.709 59.2009 149.849 59.3848 149.982 59.277Z" fill="#263238"/>
<path d="M145.542 41.5667C145.345 41.7252 145.802 41.8394 145.605 42.0043C144.793 42.7148 140.277 47.3897 141.387 49.4196C142.287 51.0498 145.098 50.9736 146.163 50.5233L148.853 49.3878L146.721 51.386C145.771 52.2683 144.97 53.2987 144.349 54.4371C144.03 54.9482 143.823 55.5213 143.742 56.1183C143.662 56.7154 143.708 57.3228 143.88 57.9005C144.045 58.4318 144.386 58.8909 144.848 59.2022C145.309 59.5135 145.862 59.6584 146.417 59.6131C147.662 59.4788 148.852 59.029 149.874 58.3064L152.76 56.4035L150.648 59.1501C150.062 59.9073 149.576 60.7366 149.202 61.6176C148.813 62.4391 148.676 63.3572 148.808 64.2564C148.883 64.6581 149.069 65.0309 149.345 65.3324C149.621 65.634 149.975 65.8523 150.369 65.9627C151.287 66.0778 152.22 65.9304 153.058 65.5377C154.877 64.706 156.629 63.7347 158.298 62.6325C159.16 62.106 160.029 61.5795 160.924 61.0911C161.79 60.5495 162.76 60.1972 163.772 60.0571C162.796 60.3015 161.876 60.7323 161.063 61.3258C160.22 61.8713 159.401 62.4612 158.583 63.0575C156.953 64.2963 155.212 65.3813 153.382 66.2989C152.399 66.8198 151.285 67.0404 150.178 66.9332C149.584 66.8063 149.039 66.5089 148.611 66.0775C148.183 65.646 147.89 65.0991 147.768 64.5037C147.576 63.3924 147.717 62.2491 148.174 61.218C148.575 60.2294 149.104 59.2975 149.747 58.446L150.534 59.2769C149.337 60.1504 147.934 60.6969 146.461 60.8627C145.642 60.9233 144.826 60.6993 144.152 60.2284C143.507 59.7482 143.021 59.0852 142.757 58.3254C142.54 57.5947 142.48 56.8261 142.582 56.0706C142.683 55.315 142.944 54.5896 143.347 53.9423C144.044 52.6978 144.945 51.5787 146.011 50.6311L146.569 51.4938C145.193 52.0266 142.059 52.4516 140.353 50.0983C138.564 46.6793 144.4 42.2898 145.542 41.5667Z" fill="#263238"/>
<path d="M145.637 41.5985C144.911 41.7095 144.174 41.7095 143.448 41.5985C143.157 41.5626 142.881 41.4496 142.648 41.2712C142.414 41.0928 142.233 40.8554 142.123 40.5836C141.967 39.9545 141.995 39.2939 142.205 38.6806C142.402 37.9892 142.649 37.2788 142.928 36.5493C142.321 37.0591 141.826 37.6899 141.476 38.4015C141.05 39.1766 140.947 40.0885 141.19 40.9388C141.368 41.388 141.681 41.7712 142.084 42.0362C142.468 42.2658 142.906 42.3864 143.353 42.3851C144.179 42.3746 144.98 42.0988 145.637 41.5985Z" fill="#263238"/>
<path d="M124.99 56.5557L150.775 85.6964C150.775 85.6964 112.5 104.434 100.029 101.554C87.5584 98.6747 61.8113 79.2644 50.552 65.3981C39.2928 51.5318 46.1118 47.6751 61.7986 52.8639C77.4854 58.0527 99.6613 68.1828 101.913 68.0876C104.165 67.9925 124.99 56.5557 124.99 56.5557Z" fill="#FFC727"/>
<path d="M150.775 85.6965C150.775 85.6965 112.5 104.428 100.029 101.555C92.2649 99.7721 79.3628 91.5703 68.0085 82.2775C67.9603 82.2488 67.9156 82.2148 67.8752 82.176C61.0373 76.5686 54.7702 70.5806 50.5456 65.3728C46.8855 60.8755 45.1411 57.4311 44.9762 55.008C44.9353 54.5554 44.9674 54.0992 45.0714 53.6569C45.9467 49.8509 52.2202 49.686 61.7921 52.8513C77.4979 58.0337 99.6548 68.1638 101.913 68.075C104.171 67.9862 124.983 56.5557 124.983 56.5557L150.775 85.6965Z" fill="#FFC727"/>
<path d="M81.0439 82.8101C81.5256 82.6444 82.0439 82.6158 82.5409 82.7277C82.8122 82.8293 83.0467 83.0099 83.2141 83.2463C83.3814 83.4827 83.474 83.7639 83.4797 84.0534C83.4751 84.2457 83.5199 84.4359 83.6099 84.6058C83.6999 84.7757 83.832 84.9197 83.9935 85.0239C84.1712 85.1416 84.3771 85.2095 84.5898 85.2206C84.8308 85.265 85.0655 85.2904 85.3066 85.3538C84.8208 85.5257 84.2943 85.5456 83.7969 85.4109C83.5338 85.2984 83.3098 85.1109 83.153 84.8716C82.9961 84.6324 82.9134 84.3522 82.9152 84.0661C82.9097 83.875 82.8563 83.6882 82.7599 83.5231C82.6635 83.358 82.5271 83.2197 82.3633 83.121C82.1712 83.007 81.9524 82.9457 81.729 82.9434C81.5197 82.899 81.2786 82.8736 81.0439 82.8101Z" fill="white"/>
<path d="M47.3296 55.9786C46.8456 56.1471 46.3227 56.1691 45.8262 56.0421C45.6138 55.9557 45.4259 55.8186 45.2788 55.6428C45.1317 55.467 45.03 55.2578 44.9826 55.0335C44.9416 54.5809 44.9737 54.1247 45.0777 53.6824C45.3419 53.9475 45.494 54.3041 45.5027 54.6783C45.5 54.8709 45.5463 55.061 45.6373 55.2308C45.7283 55.4006 45.8609 55.5444 46.0228 55.6488C46.1994 55.7637 46.4025 55.8314 46.6128 55.8454C46.8538 55.8898 47.0885 55.9152 47.3296 55.9786Z" fill="white"/>
<path d="M117.302 72.769C117.787 72.6086 118.306 72.5824 118.805 72.6929C119.077 72.7932 119.311 72.9738 119.478 73.2105C119.644 73.4473 119.735 73.7291 119.738 74.0186C119.736 74.211 119.783 74.4007 119.874 74.5703C119.965 74.7399 120.097 74.8839 120.258 74.9891C120.436 75.1048 120.642 75.1705 120.854 75.1794C121.089 75.2302 121.33 75.2555 121.564 75.319C121.081 75.4895 120.556 75.5094 120.061 75.3761C119.796 75.2635 119.571 75.0752 119.413 74.8348C119.255 74.5944 119.171 74.3126 119.173 74.025C119.17 73.8349 119.118 73.6487 119.023 73.4843C118.927 73.3199 118.791 73.1828 118.627 73.0862C118.437 72.9692 118.217 72.9077 117.993 72.9086C117.777 72.8578 117.543 72.8324 117.302 72.769Z" fill="white"/>
<path d="M142.37 83.3623C142.853 83.2019 143.37 83.1756 143.867 83.2862C144.138 83.3859 144.373 83.5652 144.541 83.8007C144.708 84.0361 144.801 84.3167 144.806 84.6056C144.801 84.7987 144.846 84.9897 144.936 85.1607C145.026 85.3316 145.158 85.4768 145.32 85.5825C145.498 85.6981 145.704 85.7639 145.916 85.7728C146.157 85.8172 146.392 85.8489 146.633 85.9123C146.146 86.0784 145.621 86.0983 145.123 85.9694C144.859 85.8566 144.634 85.668 144.477 85.4275C144.32 85.187 144.238 84.9054 144.241 84.6183C144.236 84.4271 144.182 84.2404 144.086 84.0753C143.99 83.9102 143.853 83.7719 143.689 83.6732C143.497 83.5614 143.278 83.5023 143.055 83.5019C142.871 83.4512 142.63 83.4258 142.37 83.3623Z" fill="white"/>
<path d="M93.6096 90.2319C94.0947 90.0715 94.6141 90.0452 95.113 90.1558C95.3896 90.2565 95.6289 90.4392 95.7989 90.6794C95.9689 90.9197 96.0615 91.2062 96.0644 91.5005C96.0604 91.6927 96.1055 91.8826 96.1954 92.0525C96.2853 92.2223 96.4171 92.3664 96.5782 92.471C96.7564 92.5867 96.9623 92.6524 97.1745 92.6613C97.4156 92.7121 97.6503 92.7375 97.8913 92.8009C97.4051 92.9704 96.8792 92.9903 96.3816 92.858C96.1175 92.7452 95.8929 92.5566 95.7359 92.3161C95.579 92.0756 95.4969 91.794 95.4999 91.5069C95.4945 91.3166 95.4411 91.1307 95.3446 90.9665C95.2481 90.8024 95.1117 90.6653 94.948 90.5681C94.7572 90.4511 94.5375 90.3896 94.3137 90.3905C94.0854 90.3397 93.8443 90.308 93.6096 90.2319Z" fill="white"/>
<path d="M66.1055 55.3823C66.5906 55.2219 67.11 55.1956 67.6088 55.3062C67.8794 55.408 68.113 55.5889 68.2793 55.8254C68.4456 56.0618 68.5369 56.3429 68.5413 56.6319C68.5397 56.8243 68.5865 57.014 68.6774 57.1836C68.7683 57.3532 68.9003 57.4972 69.0614 57.6024C69.239 57.72 69.4449 57.7879 69.6577 57.799C69.8924 57.8435 70.1334 57.8688 70.3745 57.9323C69.8887 58.1041 69.3621 58.1241 68.8648 57.9893C68.6017 57.8769 68.3777 57.6893 68.2209 57.4501C68.064 57.2109 67.9813 56.9307 67.9831 56.6446C67.9787 56.4532 67.9258 56.266 67.8293 56.1007C67.7328 55.9353 67.5958 55.7973 67.4312 55.6994C67.2391 55.5854 67.0203 55.5242 66.7969 55.5218C66.5876 55.4774 66.3465 55.4457 66.1055 55.3823Z" fill="white"/>
<path d="M125.535 88.8616C125.311 89.3195 124.964 89.7061 124.533 89.978C124.27 90.0983 123.977 90.1367 123.692 90.088C123.407 90.0394 123.143 89.906 122.934 89.7052C122.8 89.5674 122.633 89.4655 122.449 89.4089C122.265 89.3524 122.07 89.3431 121.882 89.3817C121.674 89.426 121.481 89.5244 121.323 89.6672C121.12 89.8004 120.936 89.9526 120.721 90.0731C120.993 89.6862 121.196 89.2105 121.748 88.9694C122.015 88.8621 122.307 88.8362 122.588 88.8949C122.869 88.9536 123.127 89.0943 123.328 89.2993C123.465 89.4313 123.634 89.5262 123.818 89.5751C124.002 89.6239 124.196 89.625 124.381 89.5784C124.587 89.5249 124.777 89.4202 124.933 89.2739C125.136 89.1343 125.326 88.9631 125.535 88.8616Z" fill="white"/>
<path d="M95.3921 76.9114C95.1675 77.3709 94.818 77.7578 94.3836 78.0278C94.1215 78.1476 93.8294 78.1857 93.5454 78.137C93.2614 78.0884 92.9986 77.9552 92.7914 77.755C92.6571 77.6171 92.4903 77.5153 92.3063 77.4587C92.1223 77.4022 91.927 77.3929 91.7384 77.4315C91.5304 77.4758 91.3379 77.5742 91.1802 77.717C90.9772 77.8502 90.787 78.0024 90.5776 78.1229C90.8504 77.736 91.0534 77.2603 91.5989 77.0192C91.8653 76.9119 92.1575 76.886 92.4386 76.9447C92.7198 77.0034 92.9772 77.1441 93.1784 77.3491C93.3174 77.4807 93.4873 77.5752 93.6724 77.6239C93.8575 77.6727 94.0519 77.6742 94.2377 77.6282C94.4443 77.5747 94.6341 77.47 94.7895 77.3237C94.9925 77.2095 95.1765 77.0636 95.3921 76.9114Z" fill="white"/>
<path d="M110.051 83.4573C109.825 83.9139 109.479 84.3 109.049 84.5737C108.786 84.6941 108.492 84.7319 108.207 84.6821C107.921 84.6322 107.658 84.4972 107.451 84.2946C107.317 84.1564 107.15 84.0547 106.965 83.9991C106.781 83.9436 106.586 83.9362 106.398 83.9774C106.189 84.0189 105.995 84.1178 105.839 84.2629C105.636 84.3961 105.452 84.5483 105.205 84.6688C105.478 84.2819 105.681 83.8061 106.233 83.5651C106.499 83.4587 106.79 83.4326 107.071 83.4901C107.352 83.5476 107.609 83.6861 107.812 83.8886C107.949 84.0222 108.117 84.1182 108.302 84.1671C108.486 84.216 108.68 84.2162 108.865 84.1677C109.074 84.1153 109.266 84.0105 109.423 83.8632C109.652 83.73 109.842 83.5778 110.051 83.4573Z" fill="white"/>
<path d="M129.011 61.9094C128.783 62.3663 128.434 62.7523 128.003 63.0258C127.74 63.1462 127.447 63.1845 127.161 63.1359C126.876 63.0872 126.612 62.9538 126.404 62.7531C126.27 62.6147 126.103 62.5125 125.919 62.4559C125.735 62.3994 125.54 62.3903 125.351 62.4296C125.144 62.4765 124.952 62.5747 124.793 62.715C124.596 62.8482 124.406 63.0005 124.159 63.121C124.438 62.734 124.634 62.2583 125.186 62.0173C125.453 61.9099 125.745 61.884 126.026 61.9427C126.307 62.0014 126.565 62.1421 126.766 62.3471C126.903 62.4787 127.072 62.5732 127.256 62.622C127.44 62.6708 127.634 62.6723 127.819 62.6262C128.04 62.5763 128.245 62.4716 128.415 62.3217C128.612 62.1822 128.796 62.0363 129.011 61.9094Z" fill="white"/>
<path d="M56.6667 60.4189C56.8271 60.904 56.8534 61.4235 56.7429 61.9223C56.641 62.1928 56.4601 62.4265 56.2236 62.5928C55.9872 62.7591 55.7062 62.8504 55.4171 62.8547C55.2247 62.8532 55.035 62.9 54.8654 62.9909C54.6959 63.0818 54.5518 63.2138 54.4466 63.3749C54.329 63.5525 54.2611 63.7584 54.25 63.9712C54.2056 64.2059 54.1802 64.4469 54.1168 64.6879C53.9449 64.2022 53.925 63.6756 54.0597 63.1783C54.1721 62.9152 54.3597 62.6912 54.5989 62.5343C54.8382 62.3775 55.1184 62.2948 55.4044 62.2965C55.5956 62.2911 55.7823 62.2377 55.9474 62.1412C56.1126 62.0448 56.2509 61.9085 56.3496 61.7447C56.4636 61.5526 56.5249 61.3337 56.5272 61.1104C56.5716 60.882 56.597 60.641 56.6667 60.4189Z" fill="white"/>
<path d="M133.185 78.6365C133.346 79.1216 133.372 79.641 133.261 80.1398C133.16 80.4109 132.98 80.645 132.743 80.8114C132.506 80.9778 132.225 81.0688 131.936 81.0723C131.743 81.0683 131.552 81.1141 131.382 81.2052C131.212 81.2963 131.069 81.4297 130.965 81.5924C130.849 81.7677 130.783 81.9719 130.775 82.1823C130.724 82.4234 130.699 82.6581 130.635 82.8991C130.465 82.4153 130.445 81.8911 130.578 81.3958C130.691 81.131 130.879 80.9055 131.12 80.7475C131.36 80.5895 131.642 80.5061 131.929 80.5077C132.12 80.5035 132.306 80.4506 132.471 80.354C132.635 80.2574 132.772 80.1203 132.868 79.9559C132.98 79.7746 133.042 79.5664 133.046 79.3533C133.09 79.1122 133.122 78.8712 133.185 78.6365Z" fill="white"/>
<path d="M111.701 94.4121C111.861 94.8972 111.887 95.4166 111.777 95.9155C111.676 96.187 111.496 96.4216 111.259 96.5881C111.022 96.7547 110.74 96.8453 110.451 96.8479C110.259 96.8463 110.069 96.8932 109.899 96.984C109.73 97.0749 109.586 97.207 109.48 97.3681C109.365 97.5462 109.299 97.7521 109.29 97.9643C109.239 98.199 109.214 98.4401 109.151 98.6811C108.981 98.1949 108.961 97.669 109.094 97.1714C109.206 96.9074 109.395 96.6827 109.635 96.5257C109.876 96.3688 110.158 96.2867 110.445 96.2897C110.635 96.2843 110.821 96.2309 110.985 96.1344C111.149 96.0379 111.286 95.9015 111.383 95.7378C111.5 95.547 111.562 95.3273 111.561 95.1035C111.612 94.8942 111.637 94.6722 111.701 94.4121Z" fill="white"/>
<path d="M107.945 67.7578C108.106 68.2429 108.132 68.7623 108.021 69.2612C107.921 69.5327 107.741 69.7673 107.504 69.9338C107.267 70.1004 106.985 70.191 106.696 70.1936C106.503 70.192 106.314 70.2388 106.144 70.3297C105.974 70.4206 105.83 70.5527 105.725 70.7138C105.61 70.8919 105.544 71.0978 105.535 71.31C105.484 71.5447 105.459 71.7858 105.395 72.0205C105.225 71.5366 105.205 71.0125 105.338 70.5171C105.451 70.2524 105.639 70.0268 105.88 69.8688C106.12 69.7108 106.402 69.6274 106.689 69.6291C106.879 69.6261 107.066 69.5744 107.23 69.4789C107.394 69.3834 107.531 69.2473 107.628 69.0835C107.745 68.8927 107.807 68.6731 107.806 68.4492C107.857 68.2336 107.882 68.0306 107.945 67.7578Z" fill="white"/>
<path d="M83.1436 65.6267C83.3068 66.1113 83.3331 66.6315 83.2197 67.13C83.1197 67.4006 82.9402 67.6345 82.7047 67.801C82.4691 67.9674 82.1887 68.0586 81.9003 68.0625C81.7071 68.061 81.5165 68.1078 81.3459 68.1987C81.1753 68.2895 81.0301 68.4215 80.9235 68.5827C80.8078 68.7608 80.7421 68.9667 80.7332 69.1789C80.6888 69.4136 80.657 69.6547 80.5936 69.8894C80.4273 69.4047 80.4074 68.8819 80.5365 68.386C80.6498 68.1218 80.8383 67.8967 81.0785 67.7388C81.3187 67.5809 81.6001 67.4971 81.8876 67.498C82.0787 67.4955 82.2659 67.4441 82.4314 67.3486C82.5969 67.253 82.7351 67.1166 82.8328 66.9524C82.9446 66.7597 83.0036 66.5409 83.004 66.3181C83.0548 66.1278 83.0802 65.8678 83.1436 65.6267Z" fill="white"/>
<path d="M68.0148 82.3027C67.9667 82.2741 67.922 82.24 67.8816 82.2012C67.8816 82.1188 67.9133 82.0363 67.9387 81.9475C67.9577 82.0744 67.9894 82.1886 68.0148 82.3027Z" fill="white"/>
<path d="M65.5537 71.1387C65.7838 70.6829 66.1321 70.2973 66.5623 70.0223C66.8261 69.9037 67.1194 69.8668 67.4044 69.9166C67.6893 69.9663 67.9528 70.1004 68.1608 70.3014C68.3719 70.5138 68.6573 70.6359 68.9568 70.6418C69.2562 70.6477 69.5462 70.5371 69.7656 70.3331C69.9686 70.1999 70.1589 70.054 70.3999 69.9272C70.1208 70.3141 69.9242 70.7899 69.3723 71.0309C69.1063 71.1373 68.8148 71.1634 68.5341 71.1059C68.2534 71.0484 67.9957 70.9098 67.7929 70.7074C67.6552 70.5738 67.4854 70.4779 67.2998 70.429C67.1142 70.3801 66.9192 70.3798 66.7336 70.4283C66.5258 70.479 66.3354 70.5841 66.1817 70.7328C65.9533 70.866 65.7694 71.0182 65.5537 71.1387Z" fill="white"/>
<path d="M143.005 89.122C141.679 87.1873 139.953 85.4683 138.444 83.6732C136.934 81.8781 135.272 80.0385 133.629 78.2434C130.458 74.7546 127.197 71.3673 123.918 67.9928C122.015 66.0264 120.029 64.1424 118.095 62.195C118.025 62.1253 117.904 62.2395 117.968 62.3156C121.095 65.9502 124.171 69.6039 127.375 73.1688C130.578 76.7337 133.718 80.1464 137.01 83.4956C137.949 84.4598 138.913 85.3985 139.877 86.3373C140.82 87.3634 141.819 88.3354 142.871 89.2489C142.941 89.3123 143.055 89.2045 143.005 89.122Z" fill="#263238"/>
<path opacity="0.1" d="M113.768 100.153C108.199 101.612 103.258 102.316 100.035 101.58C92.2713 99.7975 79.3692 91.5957 68.0148 82.3029C67.9667 82.2742 67.922 82.2402 67.8816 82.2014C61.0436 76.594 54.7765 70.606 50.5519 65.3982C46.8919 60.9008 45.1475 57.4565 44.9826 55.0334C44.9416 54.5808 44.9737 54.1246 45.0777 53.6823C45.4837 51.9315 47.0441 50.9483 49.518 50.7136L113.768 100.153Z" fill="black"/>
<path d="M74.6373 100.425L80.6443 134.463H8.68677C10.7356 101.187 30.0444 64.7892 38.557 54.418C42.8196 49.2229 51.2435 48.1129 57.6311 52.3501C59.1471 53.3524 76.8003 79.3977 78.2466 83.1972C81.1264 90.6886 74.6373 100.425 74.6373 100.425Z" fill="#FFC727"/>
<path d="M50.7737 75.0083C51.2588 74.8479 51.7782 74.8216 52.277 74.9321C52.5471 75.0347 52.7802 75.2158 52.9464 75.4521C53.1126 75.6884 53.2042 75.969 53.2095 76.2579C53.206 76.5581 53.3202 76.8477 53.5277 77.0647C53.7352 77.2817 54.0195 77.4087 54.3195 77.4187C54.5606 77.4694 54.7953 77.4948 55.0363 77.5582C54.5506 77.7301 54.024 77.75 53.5266 77.6153C53.2636 77.5029 53.0396 77.3153 52.8827 77.0761C52.7259 76.8368 52.6432 76.5566 52.6449 76.2706C52.6406 76.0791 52.5877 75.892 52.4912 75.7267C52.3946 75.5613 52.2576 75.4233 52.0931 75.3254C51.9009 75.2114 51.6821 75.1501 51.4587 75.1478C51.2494 75.0844 51.0274 75.0527 50.7737 75.0083Z" fill="white"/>
<path d="M55.468 104.821C55.9531 104.661 56.4725 104.635 56.9714 104.745C57.2419 104.847 57.4755 105.028 57.6418 105.264C57.8081 105.501 57.8994 105.782 57.9038 106.071C57.9023 106.263 57.9491 106.453 58.0399 106.623C58.1308 106.792 58.2629 106.936 58.424 107.041C58.6021 107.157 58.808 107.223 59.0202 107.232C59.2549 107.282 59.496 107.308 59.7307 107.371C59.2468 107.542 58.7227 107.562 58.2273 107.428C57.9623 107.317 57.7366 107.129 57.5795 106.888C57.4223 106.647 57.3409 106.365 57.3456 106.077C57.3402 105.887 57.2868 105.701 57.1903 105.537C57.0939 105.373 56.9574 105.236 56.7937 105.138C56.6029 105.021 56.3833 104.96 56.1594 104.961C55.9247 104.942 55.69 104.91 55.468 104.821Z" fill="white"/>
<path d="M37.8147 84.9417C38.2986 84.776 38.8189 84.7475 39.318 84.8592C39.5881 84.9618 39.8212 85.1429 39.9874 85.3792C40.1536 85.6154 40.2452 85.8961 40.2505 86.1849C40.2471 86.3776 40.2932 86.568 40.3842 86.7379C40.4753 86.9078 40.6083 87.0515 40.7706 87.1554C40.9455 87.274 41.1496 87.342 41.3606 87.3521C41.6016 87.3965 41.8363 87.4219 42.0773 87.4853C41.5935 87.6559 41.0694 87.6758 40.574 87.5424C40.3098 87.4309 40.0844 87.2437 39.9264 87.0044C39.7684 86.7651 39.6847 86.4844 39.6859 86.1976C39.6822 86.0061 39.6296 85.8187 39.533 85.6532C39.4364 85.4878 39.2991 85.3498 39.1341 85.2525C38.9513 85.1437 38.7441 85.0826 38.5315 85.0749C38.2904 85.0305 38.0557 85.0051 37.8147 84.9417Z" fill="white"/>
<path d="M28.2554 115.516C28.7383 115.356 29.2557 115.329 29.7524 115.44C30.0244 115.54 30.2595 115.72 30.4262 115.957C30.5928 116.194 30.6831 116.476 30.6848 116.766C30.6833 116.958 30.7301 117.148 30.821 117.317C30.9118 117.487 31.0439 117.631 31.205 117.736C31.3831 117.852 31.589 117.918 31.8012 117.927C32.0359 117.977 32.277 118.003 32.518 118.066C32.0318 118.236 31.5059 118.256 31.0083 118.123C30.7443 118.01 30.5196 117.822 30.3627 117.581C30.2057 117.341 30.1236 117.059 30.1266 116.772C30.1212 116.582 30.0678 116.396 29.9713 116.232C29.8749 116.068 29.7384 115.931 29.5748 115.833C29.3839 115.716 29.1643 115.655 28.9404 115.656C28.7311 115.605 28.4901 115.605 28.2554 115.516Z" fill="white"/>
<path d="M12.4799 119.5C11.9937 119.669 11.4679 119.689 10.9703 119.557C10.8652 119.517 10.7668 119.461 10.6785 119.392C10.7102 119.183 10.7546 118.98 10.799 118.758C10.8866 118.919 11.0131 119.057 11.1669 119.157C11.345 119.273 11.551 119.339 11.7632 119.347C12.0042 119.411 12.2389 119.411 12.4799 119.5Z" fill="white"/>
<path d="M43.0669 53.4412C43.5508 53.2755 44.0711 53.247 44.5702 53.3587C44.8403 53.4613 45.0734 53.6424 45.2396 53.8787C45.4058 54.115 45.4974 54.3956 45.5027 54.6844C45.4981 54.8767 45.5429 55.0669 45.6328 55.2368C45.7228 55.4067 45.8549 55.5507 46.0165 55.655C46.1941 55.7726 46.4 55.8405 46.6128 55.8516C46.8538 55.896 47.0885 55.9214 47.3295 55.9848C46.8457 56.1554 46.3216 56.1753 45.8262 56.0419C45.5615 55.9311 45.3357 55.7441 45.1775 55.5047C45.0194 55.2652 44.936 54.9841 44.9381 54.6971C44.9344 54.5056 44.8818 54.3182 44.7852 54.1528C44.6886 53.9873 44.5513 53.8494 44.3863 53.752C44.1942 53.638 43.9754 53.5767 43.752 53.5744C43.5426 53.5236 43.3016 53.4983 43.0669 53.4412Z" fill="white"/>
<path d="M68.6426 96.5752C68.4167 97.0318 68.0701 97.4179 67.6404 97.6916C67.377 97.812 67.0832 97.8498 66.7979 97.8C66.5125 97.7502 66.249 97.6151 66.0419 97.4125C65.908 97.2743 65.7409 97.1726 65.5566 97.1171C65.3724 97.0616 65.1769 97.0541 64.9889 97.0953C64.78 97.1369 64.5867 97.2357 64.4307 97.3808C64.2278 97.514 64.0438 97.6662 63.8281 97.7868C64.1009 97.3998 64.3039 96.9241 64.8557 96.683C65.1218 96.5766 65.4132 96.5505 65.694 96.608C65.9747 96.6655 66.2324 96.8041 66.4352 97.0065C66.5716 97.1402 66.7403 97.2361 66.9248 97.285C67.1094 97.334 67.3035 97.3342 67.4882 97.2856C67.6959 97.2349 67.8863 97.1298 68.04 96.9812C68.243 96.8226 68.4333 96.6703 68.6426 96.5752Z" fill="white"/>
<path d="M22.3945 87.0225C22.1644 87.4783 21.8161 87.8639 21.3859 88.1389C21.2063 88.219 21.0117 88.2604 20.815 88.2604C20.6183 88.2604 20.4238 88.219 20.2441 88.1389C20.3139 87.9676 20.3773 87.7963 20.4535 87.6251C20.695 87.745 20.9704 87.7786 21.2337 87.7202C21.4422 87.6634 21.6338 87.5567 21.7919 87.4094C21.9949 87.2889 22.1852 87.143 22.3945 87.0225Z" fill="white"/>
<path d="M22.3943 107.555C22.1681 108.014 21.8189 108.4 21.3858 108.672C21.1237 108.791 20.8316 108.829 20.5476 108.781C20.2636 108.732 20.0008 108.599 19.7936 108.399C19.6593 108.261 19.4925 108.159 19.3085 108.103C19.1245 108.046 18.9292 108.037 18.7406 108.075C18.5327 108.12 18.3401 108.218 18.1824 108.361C17.9795 108.494 17.7892 108.646 17.5798 108.767C17.8526 108.38 18.0556 107.904 18.6011 107.663C18.8675 107.556 19.1597 107.53 19.4408 107.588C19.722 107.647 19.9794 107.788 20.1805 107.993C20.3196 108.124 20.4894 108.219 20.6746 108.268C20.8597 108.317 21.0541 108.318 21.2399 108.272C21.4471 108.217 21.637 108.11 21.7917 107.961C21.9947 107.828 22.1787 107.682 22.3943 107.555Z" fill="white"/>
<path d="M43.8409 103.128C43.6108 103.584 43.2625 103.969 42.8323 104.244C42.5696 104.363 42.2772 104.4 41.9931 104.35C41.7091 104.301 41.4467 104.166 41.2402 103.965C41.0272 103.754 40.7417 103.633 40.4421 103.626C40.1426 103.619 39.8516 103.726 39.629 103.927C39.426 104.066 39.2357 104.212 39.0264 104.339C39.2991 103.952 39.4958 103.477 40.0476 103.236C40.3131 103.126 40.6054 103.098 40.8869 103.156C41.1684 103.213 41.4261 103.354 41.6271 103.559C41.7661 103.691 41.936 103.785 42.1211 103.834C42.3062 103.883 42.5006 103.884 42.6864 103.838C42.893 103.785 43.0829 103.68 43.2383 103.534C43.4159 103.394 43.6252 103.248 43.8409 103.128Z" fill="white"/>
<path d="M56.6667 60.4189C56.8271 60.904 56.8534 61.4235 56.7429 61.9223C56.641 62.1928 56.4601 62.4265 56.2236 62.5928C55.9872 62.7591 55.7062 62.8504 55.4171 62.8547C55.2247 62.8532 55.035 62.9 54.8654 62.9909C54.6959 63.0818 54.5518 63.2138 54.4466 63.3749C54.329 63.5525 54.2611 63.7584 54.25 63.9712C54.2056 64.2059 54.1802 64.4469 54.1168 64.6879C53.9449 64.2022 53.925 63.6756 54.0597 63.1783C54.1721 62.9152 54.3597 62.6912 54.5989 62.5343C54.8382 62.3775 55.1184 62.2948 55.4044 62.2965C55.5956 62.2911 55.7823 62.2377 55.9474 62.1412C56.1126 62.0448 56.2509 61.9085 56.3496 61.7447C56.4636 61.5526 56.5249 61.3337 56.5272 61.1104C56.5716 60.882 56.597 60.641 56.6667 60.4189Z" fill="white"/>
<path d="M70.6917 113.638C70.8573 114.122 70.8859 114.643 70.7741 115.142C70.6715 115.412 70.4904 115.645 70.2541 115.811C70.0179 115.977 69.7372 116.069 69.4484 116.074C69.2559 116.072 69.066 116.119 68.8963 116.21C68.7266 116.301 68.5827 116.433 68.4779 116.594C68.3602 116.772 68.2923 116.978 68.2812 117.191C68.2368 117.425 68.2115 117.666 68.148 117.901C67.9775 117.417 67.9575 116.893 68.0909 116.398C68.2017 116.133 68.3887 115.907 68.6282 115.749C68.8676 115.591 69.1487 115.508 69.4357 115.51C69.6268 115.507 69.814 115.456 69.9795 115.36C70.1449 115.265 70.2831 115.128 70.3808 114.964C70.4949 114.772 70.5561 114.553 70.5584 114.33C70.5775 114.114 70.6028 113.879 70.6917 113.638Z" fill="white"/>
<path d="M67.9388 81.9475C68.102 82.4321 68.1283 82.9523 68.0149 83.4509C67.9142 83.7209 67.7344 83.9543 67.499 84.1207C67.2637 84.287 66.9836 84.3785 66.6955 84.3833C66.502 84.3807 66.311 84.427 66.1402 84.5179C65.9695 84.6088 65.8244 84.7415 65.7186 84.9035C65.6021 85.0812 65.5363 85.2873 65.5283 85.4997C65.4839 85.7344 65.4522 85.9755 65.3888 86.2102C65.2224 85.7255 65.2026 85.2027 65.3317 84.7068C65.4443 84.4421 65.6326 84.2165 65.873 84.0585C66.1134 83.9005 66.3951 83.8171 66.6828 83.8188C66.8743 83.8151 67.0617 83.7624 67.2272 83.6658C67.3926 83.5692 67.5306 83.4319 67.6279 83.2669C67.7345 83.0835 67.7934 82.8763 67.7992 82.6643C67.8499 82.4233 67.8753 82.1886 67.9388 81.9475Z" fill="white"/>
<path d="M53.4762 90.0859C53.6386 90.5705 53.6671 91.0899 53.5586 91.5893C53.456 91.8594 53.2749 92.0925 53.0387 92.2587C52.8024 92.4249 52.5217 92.5165 52.2329 92.5217C51.9324 92.523 51.6438 92.6395 51.4267 92.8472C51.2095 93.0549 51.0804 93.338 51.0657 93.6381C51.0213 93.8728 50.9896 94.1139 50.9262 94.3486C50.7577 93.8641 50.74 93.34 50.8754 92.8452C50.9862 92.5805 51.1732 92.3547 51.4127 92.1966C51.6521 92.0384 51.9332 91.9551 52.2202 91.9572C52.4113 91.9547 52.5985 91.9033 52.764 91.8078C52.9295 91.7123 53.0677 91.5759 53.1653 91.4117C53.275 91.2177 53.336 91 53.343 90.7773C53.3874 90.5617 53.4127 90.327 53.4762 90.0859Z" fill="white"/>
<path d="M31.6556 74.8049C31.8181 75.2895 31.8466 75.8089 31.7381 76.3083C31.6355 76.5783 31.4544 76.8115 31.2181 76.9777C30.9818 77.1439 30.7012 77.2355 30.4123 77.2407C30.112 77.2388 29.8225 77.3534 29.6049 77.5604C29.3872 77.7674 29.2583 78.0507 29.2452 78.3508C29.2008 78.5918 29.1691 78.8265 29.1056 79.0676C28.9371 78.5831 28.9195 78.059 29.0549 77.5642C29.1656 77.2995 29.3526 77.0737 29.5921 76.9156C29.8316 76.7574 30.1127 76.6741 30.3996 76.6762C30.5912 76.6725 30.7786 76.6198 30.944 76.5232C31.1094 76.4266 31.2474 76.2893 31.3448 76.1243C31.4514 75.9409 31.5102 75.7337 31.5161 75.5217C31.5668 75.2807 31.5922 75.0396 31.6556 74.8049Z" fill="white"/>
<path d="M31.6553 95.668C31.8178 96.1525 31.8463 96.6719 31.7378 97.1713C31.6352 97.4414 31.4541 97.6745 31.2178 97.8407C30.9815 98.0069 30.7009 98.0985 30.412 98.1038C30.1117 98.1018 29.8222 98.2164 29.6046 98.4234C29.3869 98.6304 29.258 98.9137 29.2449 99.2138C29.2005 99.4549 29.1688 99.6896 29.1053 99.9306C28.9379 99.4438 28.9202 98.9179 29.0546 98.4209C29.1656 98.1569 29.3529 97.9319 29.5924 97.7749C29.832 97.6178 30.1129 97.5357 30.3993 97.5392C30.5905 97.5337 30.7772 97.4803 30.9423 97.3839C31.1075 97.2875 31.2458 97.1511 31.3445 96.9874C31.4563 96.7946 31.5154 96.5758 31.5158 96.353C31.5665 96.1437 31.5919 95.9027 31.6553 95.668Z" fill="white"/>
<path d="M48.4268 113.638C48.5871 114.124 48.6134 114.643 48.5029 115.142C48.4018 115.413 48.221 115.647 47.9844 115.813C47.7478 115.98 47.4664 116.071 47.1771 116.074C46.9847 116.073 46.795 116.119 46.6255 116.21C46.4559 116.301 46.3119 116.433 46.2066 116.594C46.091 116.773 46.0252 116.978 46.0163 117.191C45.9656 117.425 45.9402 117.666 45.8768 117.901C45.7062 117.417 45.6863 116.893 45.8197 116.398C45.9323 116.133 46.1206 115.907 46.361 115.749C46.6014 115.591 46.8831 115.508 47.1708 115.51C47.3609 115.507 47.5471 115.455 47.7114 115.36C47.8758 115.264 48.0129 115.128 48.1096 114.964C48.2253 114.773 48.2867 114.553 48.2872 114.33C48.3316 114.114 48.3633 113.879 48.4268 113.638Z" fill="white"/>
<path d="M65.5537 71.1387C65.7838 70.6829 66.1321 70.2973 66.5623 70.0223C66.8261 69.9037 67.1194 69.8668 67.4044 69.9166C67.6893 69.9663 67.9528 70.1004 68.1608 70.3014C68.3719 70.5138 68.6573 70.6359 68.9568 70.6418C69.2562 70.6477 69.5462 70.5371 69.7656 70.3331C69.9686 70.1999 70.1589 70.054 70.3999 69.9272C70.1208 70.3141 69.9242 70.7899 69.3723 71.0309C69.1063 71.1373 68.8148 71.1634 68.5341 71.1059C68.2534 71.0484 67.9957 70.9098 67.7929 70.7074C67.6552 70.5738 67.4854 70.4779 67.2998 70.429C67.1142 70.3801 66.9192 70.3798 66.7336 70.4283C66.5258 70.479 66.3354 70.5841 66.1817 70.7328C65.9533 70.866 65.7694 71.0182 65.5537 71.1387Z" fill="white"/>
<path d="M39.9331 69.0074C40.1613 68.5503 40.5101 68.1643 40.9417 67.891C41.204 67.7702 41.4969 67.7322 41.7813 67.7821C42.0657 67.8319 42.3282 67.9673 42.5338 68.1701C42.6678 68.3083 42.8348 68.41 43.0191 68.4655C43.2034 68.521 43.3988 68.5285 43.5868 68.4873C43.7958 68.4457 43.989 68.3469 44.145 68.2018C44.348 68.0686 44.5383 67.9227 44.7476 67.7958C44.4749 68.1828 44.2719 68.6585 43.7264 68.8996C43.4603 69.006 43.1689 69.0321 42.8881 68.9746C42.6074 68.9171 42.3497 68.7785 42.1469 68.5761C42.0089 68.4429 41.839 68.3474 41.6536 68.2986C41.4681 68.2497 41.2733 68.2492 41.0876 68.297C40.8799 68.3477 40.6894 68.4528 40.5357 68.6014C40.3327 68.7346 40.1488 68.8869 39.9331 69.0074Z" fill="white"/>
<path d="M34.9667 57.6721C25.4011 65.5694 -8.96645 94.818 -6.89856 105.202C-4.81799 115.719 3.14276 124.232 9.26397 118.332C14.3386 113.492 36.7428 77.5708 40.8088 67.9671C44.6845 58.8202 44.3674 49.908 34.9667 57.6721Z" fill="#DD6A57"/>
<path d="M-7.77393 102.284C-7.77393 109.566 -2.89599 123.293 6.57444 120.736C12.7781 119.068 38.5062 76.6574 42.6547 66.5971C47.4565 54.9446 43.289 50.3648 34.4085 57.2345C25.528 64.1042 -7.76124 91.8875 -7.77393 102.284Z" fill="#FFC727"/>
<path d="M18.9436 71.792C18.4598 71.9625 17.9356 71.9824 17.4403 71.8491C17.3646 71.8186 17.2924 71.7803 17.2246 71.7349C17.3489 71.6359 17.4675 71.53 17.5798 71.4177L17.6369 71.4621C17.8132 71.5767 18.0168 71.6424 18.2268 71.6524C18.4679 71.7032 18.7089 71.7349 18.9436 71.792Z" fill="white"/>
<path d="M7.44336 96.5244C7.92846 96.364 8.44789 96.3377 8.94671 96.4483C9.21824 96.5486 9.45284 96.7291 9.61938 96.9659C9.78592 97.2027 9.87653 97.4845 9.87916 97.774C9.8776 97.9664 9.92441 98.1561 10.0153 98.3257C10.1062 98.4952 10.2382 98.6393 10.3993 98.7445C10.5774 98.8602 10.7834 98.9259 10.9956 98.9348C11.2303 98.9855 11.4713 99.0109 11.706 99.0744C11.2222 99.2449 10.698 99.2648 10.2027 99.1314C9.93792 99.0189 9.71237 98.8306 9.55436 98.5902C9.39635 98.3498 9.31294 98.068 9.31462 97.7803C9.31169 97.5902 9.25999 97.4041 9.16447 97.2397C9.06895 97.0753 8.93281 96.9382 8.7691 96.8415C8.57773 96.7258 8.35843 96.6644 8.13478 96.6639C7.89374 96.6132 7.6844 96.5751 7.44336 96.5244Z" fill="white"/>
<path d="M10.4818 117.565C10.3422 117.717 10.2027 117.869 10.0631 118.009C10.0317 117.855 9.96877 117.709 9.87816 117.58C9.78755 117.451 9.67128 117.342 9.53665 117.26C9.34391 117.149 9.12514 117.09 8.90232 117.089C8.66763 117.045 8.42659 117.013 8.18555 116.95C8.67071 116.79 9.19004 116.763 9.68889 116.874C9.86074 116.93 10.0195 117.02 10.1558 117.139C10.292 117.257 10.4029 117.402 10.4818 117.565Z" fill="white"/>
<path d="M22.3943 87.0225C22.1661 87.4795 21.8174 87.8656 21.3858 88.1389C21.1235 88.2597 20.8306 88.2976 20.5461 88.2478C20.2617 88.1979 19.9992 88.0626 19.7936 87.8598C19.6597 87.7215 19.4926 87.6198 19.3083 87.5643C19.1241 87.5088 18.9286 87.5013 18.7406 87.5426C18.5317 87.5841 18.3384 87.683 18.1824 87.828C17.9795 87.9613 17.7892 88.1072 17.5798 88.234C17.8526 87.8471 18.0556 87.3713 18.6011 87.1303C18.8672 87.0239 19.1586 86.9978 19.4393 87.0553C19.72 87.1128 19.9778 87.2513 20.1805 87.4538C20.3186 87.5869 20.4884 87.6825 20.6739 87.7313C20.8593 87.7802 21.0542 87.7807 21.2399 87.7329C21.4476 87.6822 21.638 87.5771 21.7917 87.4284C21.9947 87.2952 22.1787 87.143 22.3943 87.0225Z" fill="white"/>
<path d="M33.089 59.1499C33.2494 59.6328 33.2757 60.1502 33.1651 60.6469C33.0667 60.9184 32.8875 61.1533 32.6516 61.32C32.4158 61.4867 32.1345 61.5772 31.8457 61.5794C31.6523 61.5773 31.4616 61.6239 31.2909 61.7147C31.1202 61.8056 30.9751 61.9379 30.8689 62.0995C30.7532 62.2776 30.6875 62.4836 30.6786 62.6958C30.6341 62.9368 30.6024 63.1715 30.539 63.4125C30.3729 62.9257 30.353 62.4009 30.4819 61.9029C30.5948 61.6388 30.7833 61.4141 31.0238 61.2572C31.2643 61.1003 31.5459 61.0181 31.833 61.0212C32.0242 61.0157 32.2109 60.9623 32.376 60.8659C32.5412 60.7694 32.6794 60.6331 32.7782 60.4693C32.89 60.2766 32.949 60.0578 32.9494 59.835C33.0002 59.6256 33.0255 59.3846 33.089 59.1499Z" fill="white"/>
<path d="M31.6556 74.8049C31.8181 75.2895 31.8466 75.8089 31.7381 76.3083C31.6355 76.5783 31.4544 76.8115 31.2181 76.9777C30.9818 77.1439 30.7012 77.2355 30.4123 77.2407C30.112 77.2388 29.8225 77.3534 29.6049 77.5604C29.3872 77.7674 29.2583 78.0507 29.2452 78.3508C29.2008 78.5918 29.1691 78.8265 29.1056 79.0676C28.9371 78.5831 28.9195 78.059 29.0549 77.5642C29.1656 77.2995 29.3526 77.0737 29.5921 76.9156C29.8316 76.7574 30.1127 76.6741 30.3996 76.6762C30.5912 76.6725 30.7786 76.6198 30.944 76.5232C31.1094 76.4266 31.2474 76.2893 31.3448 76.1243C31.4514 75.9409 31.5102 75.7337 31.5161 75.5217C31.5668 75.2807 31.5922 75.0396 31.6556 74.8049Z" fill="white"/>
<path d="M1.60119 108.177C1.76154 108.662 1.78784 109.181 1.6773 109.68C1.57735 109.951 1.39778 110.185 1.16225 110.351C0.926723 110.517 0.646297 110.609 0.357915 110.613C0.164556 110.611 -0.0262218 110.657 -0.196904 110.748C-0.367586 110.839 -0.512705 110.971 -0.618942 111.133C-0.734612 111.311 -0.800335 111.517 -0.80924 111.729C-0.853643 111.964 -0.88536 112.205 -0.948792 112.446C-1.11492 111.959 -1.13476 111.434 -1.00588 110.936C-0.893039 110.672 -0.70447 110.447 -0.463991 110.29C-0.223511 110.133 0.0580868 110.051 0.345226 110.054C0.536376 110.049 0.723088 109.995 0.888227 109.899C1.05337 109.803 1.19164 109.666 1.29036 109.502C1.40217 109.31 1.46124 109.091 1.46163 108.868C1.51238 108.659 1.55044 108.418 1.60119 108.177Z" fill="white"/>
<path d="M42.0964 67.8786C42.0266 68.0372 41.9441 68.2085 41.8617 68.3797C41.6219 68.2603 41.3473 68.231 41.0878 68.2973C40.8801 68.348 40.6896 68.4531 40.5359 68.6017C40.333 68.7349 40.149 68.8872 39.9016 69.0077C40.1871 68.6144 40.371 68.1577 40.9102 67.8913C41.0946 67.8013 41.2967 67.7535 41.5018 67.7513C41.707 67.7491 41.9101 67.7926 42.0964 67.8786Z" fill="white"/>
<path d="M36.5334 81.269C35.6771 82.4616 34.7319 83.5907 33.8185 84.7388L33.1842 85.5634C33.7551 84.4682 34.3133 83.3644 34.8588 82.2523C35.6925 80.6591 36.44 79.0223 37.0979 77.3489C37.1423 77.2411 36.9774 77.1903 36.9203 77.2791C36.064 78.6239 35.3789 80.0575 34.567 81.4276C33.7551 82.7978 32.9749 84.1869 32.201 85.5761C30.6406 88.3481 29.0294 91.1074 27.3865 93.8223C24.0817 99.2521 20.5612 104.561 16.9202 109.775C15.8989 111.234 14.8903 112.706 13.8183 114.133C12.7463 115.561 11.7377 117.108 10.6467 118.542C10.6086 118.593 10.6784 118.662 10.7228 118.612C11.7504 117.343 12.8097 116.157 13.8564 114.933C14.903 113.708 15.7911 112.433 16.7743 111.165C18.7343 108.627 20.5802 106.039 22.3944 103.407C26.0108 98.1089 29.3579 92.6319 32.423 86.997L32.645 86.5656C33.1652 86.0138 33.6726 85.4429 34.1547 84.8466C35.0618 83.7175 35.8483 82.506 36.6412 81.2944C36.6666 81.2627 36.5715 81.212 36.5334 81.269Z" fill="#263238"/>
<path d="M56.3053 52.3122C56.3053 52.3122 58.4049 60.9136 55.8993 62.0998C51.2243 64.3136 42.8703 57.4375 42.3248 56.2069C42.1916 55.8898 41.4938 47.6245 40.9737 41.2052C40.6311 37.0694 40.3394 33.6948 40.3394 33.6948L56.7366 40.1966L56.3687 51.5003L56.3053 52.3122Z" fill="#DD6A57"/>
<path d="M56.7366 40.1966L56.3687 51.5003C53.2286 50.9592 50.2376 49.7628 47.5906 47.989C44.9435 46.2152 42.6998 43.9038 41.0054 41.2052C40.6629 37.0694 40.3711 33.6948 40.3711 33.6948L42.42 34.4306L56.7366 40.1966Z" fill="#263238"/>
<path d="M59.7431 27.3452C59.9905 31.9695 63.4793 35.5343 67.5326 35.3123C71.5859 35.0903 74.6687 31.1702 74.4213 26.5523C74.174 21.9345 70.6788 18.3632 66.6255 18.5853C62.5722 18.8073 59.4894 22.7274 59.7431 27.3452Z" fill="#455A64"/>
<path d="M57.371 27.7701C57.6501 32.9081 61.5322 36.8727 66.0422 36.6507C70.5522 36.4286 73.9776 32.0391 73.7048 26.9011C73.4321 21.7631 69.5437 17.7922 65.0336 18.0206C60.5236 18.249 57.1046 22.6258 57.371 27.7701Z" fill="#C7C7C7"/>
<path d="M71.1483 23.9835C72.677 43.7744 60.9991 46.927 56.7301 47.2505C52.8544 47.5486 39.6034 48.0624 36.0512 28.5316C32.499 9.00082 41.2019 2.03596 50.0063 0.887834C58.8107 -0.26029 69.6132 4.18631 71.1483 23.9835Z" fill="#DD6A57"/>
<path d="M64.9826 20.4564C64.5285 20.3988 64.0776 20.3183 63.6315 20.2154C63.1452 20.1941 62.6794 20.0136 62.3058 19.7016C62.2101 19.5782 62.1582 19.4264 62.1582 19.2703C62.1582 19.1141 62.2101 18.9623 62.3058 18.8389C62.524 18.6161 62.7982 18.4562 63.0995 18.3758C63.4009 18.2955 63.7183 18.2977 64.0185 18.3822C64.6541 18.4562 65.2396 18.7637 65.6614 19.2449C65.7517 19.362 65.8057 19.5032 65.8165 19.6507C65.8273 19.7983 65.7946 19.9458 65.7222 20.0749C65.6499 20.204 65.5413 20.309 65.4098 20.3768C65.2783 20.4446 65.1297 20.4723 64.9826 20.4564Z" fill="#263238"/>
<path d="M51.4019 21.5156C51.8496 21.4174 52.2921 21.2967 52.7276 21.154C53.2082 21.0861 53.6536 20.8634 53.9963 20.5197C54.0844 20.3917 54.1273 20.2379 54.1181 20.0828C54.1089 19.9277 54.0482 19.7801 53.9456 19.6634C53.7091 19.4605 53.4225 19.3246 53.1158 19.27C52.809 19.2153 52.4932 19.2438 52.2012 19.3525C51.5746 19.4812 51.0184 19.8385 50.6407 20.3548C50.5589 20.4779 50.5151 20.6224 50.5147 20.7702C50.5142 20.918 50.5572 21.0627 50.6383 21.1864C50.7193 21.31 50.8349 21.4071 50.9707 21.4656C51.1064 21.5241 51.2564 21.5415 51.4019 21.5156Z" fill="#263238"/>
<path d="M54.8335 26.3367C54.8335 26.286 54.7383 26.4128 54.7447 26.4636C54.9033 27.8083 54.8652 29.3751 53.6854 29.927C53.6473 29.927 53.6854 30.0094 53.6854 30.0031C55.1697 29.6606 55.2014 27.58 54.8335 26.3367Z" fill="#263238"/>
<path d="M53.508 25.0362C51.3259 25.0362 51.5416 29.4194 53.565 29.394C55.5885 29.3687 55.3348 25.0109 53.508 25.0362Z" fill="#263238"/>
<path d="M52.664 25.309C52.2961 25.5754 51.9409 26.0258 51.4841 26.0956C51.0274 26.1653 50.5327 25.7403 50.1647 25.3153C50.1267 25.2709 50.095 25.3153 50.095 25.3724C50.095 26.2034 50.4883 27.047 51.3636 27.1295C52.239 27.212 52.7338 26.4317 52.8987 25.5818C52.9304 25.4232 52.8099 25.2012 52.664 25.309Z" fill="#263238"/>
<path d="M62.7054 25.4548C62.7054 25.3977 62.8133 25.5119 62.8133 25.5689C62.8133 26.92 63.067 28.4678 64.3103 28.8611C64.3483 28.8611 64.3483 28.9435 64.3103 28.9372C62.8006 28.7913 62.5025 26.7361 62.7054 25.4548Z" fill="#263238"/>
<path d="M63.8537 23.9894C66.0167 23.7357 66.391 28.0871 64.3611 28.3218C62.3313 28.5565 62.0395 24.2051 63.8537 23.9894Z" fill="#263238"/>
<path d="M64.7798 24.2055C65.1413 24.4085 65.5156 24.8017 65.9279 24.7954C66.3402 24.7891 66.7208 24.2879 66.9935 23.8122C66.9935 23.7615 67.057 23.8122 67.0633 23.8566C67.1521 24.6812 66.9491 25.5693 66.1626 25.7976C65.376 26.026 64.8495 25.3282 64.5895 24.529C64.5387 24.3641 64.6339 24.123 64.7798 24.2055Z" fill="#263238"/>
<path d="M56.064 36.7965C56.3875 37.1137 56.6984 37.545 57.2058 37.5831C57.7085 37.5706 58.2031 37.454 58.6584 37.2406C58.6677 37.233 58.6795 37.2294 58.6914 37.2306C58.7033 37.2318 58.7143 37.2376 58.7218 37.2469C58.7294 37.2561 58.733 37.268 58.7318 37.2799C58.7306 37.2918 58.7247 37.3028 58.7155 37.3103C58.5233 37.5765 58.2625 37.7854 57.9609 37.915C57.6593 38.0446 57.3282 38.0899 57.0028 38.0461C56.7265 37.9785 56.477 37.8291 56.2869 37.6175C56.0968 37.4059 55.9749 37.1419 55.9372 36.86C55.9118 36.7775 56.0196 36.7521 56.064 36.7965Z" fill="#263238"/>
<path d="M61.4051 31.5761C61.4051 31.5761 61.811 33.5743 61.8681 34.5257C61.8681 34.6145 61.6461 34.6716 61.3226 34.7097C61.3226 34.7097 61.3226 34.7097 61.2846 34.7097C60.4777 34.9097 59.6313 34.8829 58.8388 34.6321C58.0463 34.3814 57.3385 33.9165 56.7935 33.2888C56.7238 33.2 56.838 33.0985 56.9268 33.1493C58.1901 33.9029 59.6624 34.2298 61.126 34.0817C61.1767 33.8153 60.3267 30.6817 60.4916 30.6627C61.2337 30.6834 61.9696 30.8028 62.6801 31.0179C61.9696 26.8314 60.5868 22.7717 59.9334 18.6169C59.9317 18.5872 59.94 18.5576 59.957 18.5331C59.974 18.5086 59.9987 18.4905 60.0272 18.4817C60.0558 18.4729 60.0864 18.474 60.1143 18.4847C60.1421 18.4954 60.1655 18.5152 60.1808 18.5408C61.9252 22.6703 62.8577 27.4657 63.7077 31.7728C63.7965 32.3056 61.811 31.7157 61.4051 31.5761Z" fill="#263238"/>
<path d="M60.663 34.2341C60.2243 34.9705 59.604 35.582 58.8615 36.0102C58.449 36.2279 57.9791 36.3121 57.5167 36.2513C56.5018 36.1117 56.3749 35.2173 56.4638 34.4244C56.5137 34.0038 56.6138 33.5907 56.7619 33.1938C57.9173 33.9495 59.2847 34.3142 60.663 34.2341Z" fill="#263238"/>
<path d="M58.8615 36.0101C58.449 36.2277 57.9791 36.312 57.5167 36.2511C56.5018 36.1116 56.3749 35.2172 56.4638 34.4243C57.5231 34.4116 58.6395 34.9952 58.8615 36.0101Z" fill="#F392B9"/>
<path d="M36.3431 26.7552C38.5062 26.7552 44.4181 21.097 45.1222 10.7005C45.1222 10.7005 43.8535 19.9933 43.0733 21.3254C42.2931 22.6574 46.3781 18.1537 47.0632 9.768C47.0632 9.768 51.5415 13.3583 55.4426 14.6713C59.3437 15.9844 61.7858 16.0732 62.0776 15.8004C62.3694 15.5277 56.6351 13.3963 55.1508 11.4934C55.1508 11.4934 65.4458 16.9358 70.2857 17.5511C70.8439 17.6209 69.5563 9.00681 62.2933 3.71657C55.0303 -1.57368 45.4076 0.215104 42.052 3.13933C42.052 3.13933 38.2461 3.48186 33.901 8.84823C29.5559 14.2146 34.0152 26.7996 36.3431 26.7552Z" fill="#263238"/>
<path d="M39.3181 29.8128C39.3181 29.8128 35.0428 23.5711 32.2137 25.0935C29.3846 26.6158 32.5626 35.6232 35.8547 36.8855C36.2657 37.0756 36.7108 37.1806 37.1634 37.1944C37.616 37.2082 38.0667 37.1304 38.4885 36.9657C38.9103 36.801 39.2944 36.5528 39.6179 36.236C39.9414 35.9192 40.1976 35.5403 40.3711 35.1221L39.3181 29.8128Z" fill="#DD6A57"/>
<path d="M33.1905 27.6558C33.1823 27.6591 33.1752 27.6647 33.1702 27.6721C33.1653 27.6794 33.1626 27.6881 33.1626 27.697C33.1626 27.7059 33.1653 27.7145 33.1702 27.7219C33.1752 27.7292 33.1823 27.7349 33.1905 27.7382C35.4995 28.7024 36.6983 30.8591 37.5293 33.0919C36.8506 32.2292 35.9118 31.7471 34.7573 32.5591C34.7002 32.6035 34.7573 32.6986 34.8207 32.6796C35.2287 32.5555 35.665 32.5602 36.0702 32.693C36.4754 32.8258 36.8299 33.0803 37.0853 33.4217C37.5093 33.9981 37.8688 34.6192 38.1573 35.274C38.2651 35.4833 38.6394 35.3755 38.5632 35.1344V35.0837C38.614 32.1277 36.3558 27.9793 33.1905 27.6558Z" fill="#263238"/>
<path d="M37.707 36.0229C37.7031 36.1611 37.6583 36.295 37.5782 36.4077C37.4981 36.5204 37.3864 36.6067 37.2571 36.6558C37.1279 36.7048 36.987 36.7144 36.8523 36.6832C36.7176 36.6521 36.5952 36.5816 36.5006 36.4808C36.406 36.38 36.3435 36.2533 36.3211 36.1169C36.2986 35.9805 36.3171 35.8405 36.3743 35.7147C36.4315 35.5888 36.5248 35.4828 36.6424 35.4101C36.76 35.3373 36.8965 35.3011 37.0346 35.3061C37.2186 35.3127 37.3925 35.3918 37.5184 35.526C37.6444 35.6603 37.7121 35.8389 37.707 36.0229Z" fill="white"/>
<path d="M35.8038 34.754C35.8013 34.8115 35.7876 34.868 35.7633 34.9201C35.739 34.9723 35.7047 35.0192 35.6622 35.0581C35.6198 35.0969 35.5701 35.1271 35.5161 35.1467C35.462 35.1664 35.4046 35.1752 35.3471 35.1727C35.2899 35.171 35.2335 35.158 35.1814 35.1344C35.1293 35.1108 35.0824 35.0771 35.0434 35.0352C35.0044 34.9933 34.9742 34.944 34.9545 34.8903C34.9347 34.8366 34.9259 34.7795 34.9284 34.7223C34.93 34.6648 34.943 34.6082 34.9665 34.5557C34.9901 34.5033 35.0237 34.4559 35.0655 34.4165C35.1073 34.377 35.1565 34.3462 35.2103 34.3257C35.264 34.3053 35.3213 34.2956 35.3788 34.2973C35.4949 34.3038 35.6039 34.355 35.6832 34.4402C35.7624 34.5253 35.8056 34.6377 35.8038 34.754Z" fill="white"/>
<path d="M32.4103 29.0261L31.0465 29.3116C31.0111 29.3189 30.9746 29.3192 30.9391 29.3123C30.9035 29.3054 30.8697 29.2915 30.8396 29.2715C30.8095 29.2514 30.7837 29.2255 30.7637 29.1954C30.7437 29.1653 30.7298 29.1314 30.723 29.0959C30.708 29.0252 30.7216 28.9515 30.7608 28.8908C30.8 28.8302 30.8617 28.7876 30.9324 28.7724L32.2962 28.4869C32.3316 28.4796 32.3681 28.4793 32.4036 28.4862C32.4392 28.4931 32.473 28.5069 32.5031 28.527C32.5332 28.5471 32.559 28.5729 32.579 28.6031C32.599 28.6332 32.6128 28.6671 32.6197 28.7026C32.6347 28.7733 32.6211 28.847 32.5819 28.9076C32.5426 28.9683 32.4809 29.0109 32.4103 29.0261Z" fill="#FFC727"/>
<path d="M32.2579 28.1507L30.8688 28.2332C30.8324 28.2358 30.7959 28.231 30.7615 28.2193C30.727 28.2075 30.6952 28.189 30.668 28.1647C30.6408 28.1405 30.6187 28.1111 30.6031 28.0781C30.5875 28.0452 30.5786 28.0095 30.577 27.9731C30.5735 27.9001 30.5988 27.8287 30.6474 27.7741C30.696 27.7195 30.7641 27.6862 30.8371 27.6813L32.2199 27.5989C32.2929 27.5936 32.3651 27.6172 32.4209 27.6647C32.4767 27.7122 32.5115 27.7797 32.518 27.8526C32.5216 27.9263 32.4965 27.9985 32.448 28.054C32.3995 28.1096 32.3314 28.1443 32.2579 28.1507Z" fill="#FFC727"/>
<path d="M35.2138 25.0489C35.2138 25.0489 33.5392 15.0647 35.9306 9.19085C38.5947 2.69539 51.3129 -2.72172 61.2654 2.98718C61.2654 2.98718 46.1432 -0.0195109 39.9522 9.2416C37.3451 13.1427 38.5947 24.9474 38.5947 24.9474L35.2138 25.0489Z" fill="#C7C7C7"/>
<path d="M38.0174 39.3407C42.5062 38.8483 45.6902 34.3022 45.129 29.1865C44.5679 24.0709 40.4741 20.3231 35.9853 20.8155C31.4965 21.3079 28.3126 25.8541 28.8737 30.9697C29.4349 36.0853 33.5287 39.8331 38.0174 39.3407Z" fill="#C7C7C7"/>
<path d="M42.7307 29.1593C43.2382 33.7581 40.3774 37.8432 36.3431 38.2872C32.3088 38.7312 28.6234 35.363 28.0969 30.7641C27.5704 26.1653 30.4566 22.0739 34.4909 21.6362C38.5252 21.1985 42.2296 24.5604 42.7307 29.1593Z" fill="#455A64"/>
<path d="M53.4761 42.6767L46.8601 41.4969L40.6184 36.6189L41.3733 35.6548L47.3739 40.3488L53.6855 41.4715L53.4761 42.6767Z" fill="#C7C7C7"/>
<path d="M52.6073 41.8714C52.7849 39.9684 57.8404 39.48 57.574 42.3344C57.3076 45.1889 52.4297 43.7616 52.6073 41.8714Z" fill="#37474F"/>
<path d="M56.3559 52.0647L54.6877 61.3258L41.8236 52.699L39.5337 56.7967C39.5337 56.7967 53.4888 71.8365 53.3809 71.0436L55.3854 62.956L61.532 67.0284L58.4555 54.2404L56.3559 52.0647Z" fill="white"/>
<path d="M10.1137 117.4C4.22722 124.587 -5.35105 116.379 -6.44209 109.985C-9.01109 94.9704 -5.70627 67.4345 -1.32945 54.3865C0.0787468 50.1873 27.9636 58.1924 28.0333 62.9181C28.1031 67.8785 22.0517 102.817 10.1137 117.4Z" fill="#DD6A57"/>
<path d="M-2.07788 61.9349C-2.07788 61.9349 -1.65923 48.151 3.24408 38.9661C6.63136 32.6228 15.5436 19.6192 37.0154 18.6677C42.09 18.4521 49.5179 21.7506 41.3288 25.1315C35.5121 27.5292 31.1035 27.2945 27.97 29.3053C27.97 29.3053 36.9012 34.621 36.9203 39.7273C36.936 44.1959 36.635 48.66 36.0195 53.0861C35.1759 53.16 34.3283 53.1791 33.4822 53.1432C33.4822 53.1432 33.3554 57.926 28.0144 62.8864L-2.07788 61.9349Z" fill="#DD6A57"/>
<path d="M7.44336 33.4219C10.9702 32.0835 18.4933 29.3686 25.4201 29.2925C33.1144 29.2037 47.9575 31.1067 47.9639 36.7839C47.9639 40.9514 42.255 40.723 42.255 40.723C42.255 40.723 48.2239 42.8036 47.4057 46.5651C46.6572 49.9968 42.2359 49.5528 42.2359 49.5528C42.2359 49.5528 45.6423 51.4557 44.2848 54.6273C42.6546 58.4333 35.7849 53.8598 30.8055 56.2893C29.6764 56.8094 7.44336 33.4219 7.44336 33.4219Z" fill="#DD6A57"/>
<path d="M24.1576 37.4373C27.6844 36.7205 36.1019 37.1455 42.1596 40.6089C42.2992 40.685 42.3119 40.8309 42.1596 40.7865C36.3088 38.9757 30.2595 37.8829 24.1449 37.5324C24.1195 37.5071 24.1195 37.4436 24.1576 37.4373Z" fill="#263238"/>
<path d="M24.475 45.1951C27.5768 44.8906 36.2353 45.7152 42.236 49.407C42.3692 49.4894 42.3756 49.6417 42.236 49.5909C36.4978 47.4836 30.5396 46.0323 24.475 45.2649C24.4682 45.2619 24.4624 45.257 24.4584 45.2508C24.4543 45.2446 24.4521 45.2374 24.4521 45.23C24.4521 45.2226 24.4543 45.2153 24.4584 45.2091C24.4624 45.2029 24.4682 45.198 24.475 45.1951Z" fill="#263238"/>
<path d="M47.2978 34.3102C46.4605 33.3841 45.2743 33.0416 44.2341 32.4073C44.177 32.3756 44.1262 32.4707 44.1833 32.4961C46.0165 33.2636 47.9385 35.0778 47.634 37.2281C47.2661 39.8162 44.1643 40.4759 42.0139 40.5329C41.9061 40.5329 41.9568 40.6535 42.0647 40.6725C44.4561 41.0912 47.8307 40.2602 48.2747 37.4438C48.3593 36.8816 48.3153 36.3076 48.1461 35.7649C47.9769 35.2221 47.6869 34.7248 47.2978 34.3102Z" fill="#263238"/>
<path d="M41.7157 40.4502C41.6586 40.4502 41.6142 40.5136 41.6713 40.539C44.9825 41.8076 47.025 44.1102 47.1899 45.4169C47.3086 46.0496 47.232 46.7033 46.9702 47.2913C46.7085 47.8793 46.2741 48.3738 45.7246 48.7091C44.5748 49.3425 43.2395 49.5535 41.9504 49.3053C41.8426 49.3053 41.8045 49.4449 41.906 49.4639C43.4601 49.7494 46.4478 50.0982 47.5261 47.5927C48.4269 45.4994 47.4183 42.0233 41.7157 40.4502Z" fill="#263238"/>
<path d="M44.1578 51.0309C43.4972 50.1047 42.5389 49.433 41.4429 49.1279C41.3922 49.1279 41.3541 49.1977 41.4429 49.2167C43.3459 49.9843 44.9761 52.2615 44.3671 54.3738C44.3291 54.507 44.5257 54.545 44.5701 54.4245C44.7664 53.8651 44.8313 53.2681 44.7598 52.6796C44.6883 52.0911 44.4823 51.527 44.1578 51.0309Z" fill="#263238"/>
<path d="M45.1981 21.6553C45.0459 20.7039 43.847 19.7524 41.5444 19.321C43.4474 19.8412 44.8366 20.8688 44.8239 21.7949C44.8112 22.721 44.1261 23.6979 42.109 24.7826C42.0519 24.7826 42.109 24.8396 42.1534 24.8143C43.3459 24.2624 45.4645 23.3617 45.1981 21.6553Z" fill="#263238"/>
<path d="M-3.52409 56.6953L30.983 68.3161C30.983 68.3161 18.4108 107.041 12.4735 115.357C6.53627 123.673 -1.69724 122.176 -6.44831 111.862C-11.1994 101.548 -3.52409 56.6953 -3.52409 56.6953Z" fill="#FFC727"/>
<path d="M14.6809 69.2424C15.166 69.082 15.6854 69.0557 16.1843 69.1663C16.4548 69.2681 16.6884 69.449 16.8547 69.6855C17.021 69.9219 17.1123 70.203 17.1167 70.492C17.1151 70.6844 17.162 70.8741 17.2528 71.0437C17.3437 71.2133 17.4758 71.3573 17.6369 71.4625C17.815 71.5782 18.0209 71.6439 18.2331 71.6528C18.4678 71.7036 18.7089 71.7289 18.9436 71.7924C18.4597 71.9629 17.9356 71.9828 17.4402 71.8494C17.1755 71.7369 16.9499 71.5486 16.7919 71.3082C16.6339 71.0678 16.5505 70.786 16.5522 70.4984C16.5492 70.3083 16.4975 70.1221 16.402 69.9577C16.3065 69.7933 16.1704 69.6562 16.0066 69.5596C15.8145 69.4455 15.5957 69.3843 15.3723 69.3819C15.1566 69.3375 14.922 69.2995 14.6809 69.2424Z" fill="white"/>
<path d="M7.44336 96.5244C7.92846 96.364 8.44789 96.3377 8.94671 96.4483C9.21824 96.5486 9.45284 96.7291 9.61938 96.9659C9.78592 97.2027 9.87653 97.4845 9.87916 97.774C9.8776 97.9664 9.92441 98.1561 10.0153 98.3257C10.1062 98.4952 10.2382 98.6393 10.3993 98.7445C10.5774 98.8602 10.7834 98.9259 10.9956 98.9348C11.2303 98.9855 11.4713 99.0109 11.706 99.0744C11.2222 99.2449 10.698 99.2648 10.2027 99.1314C9.93792 99.0189 9.71237 98.8306 9.55436 98.5902C9.39635 98.3498 9.31294 98.068 9.31462 97.7803C9.31169 97.5902 9.25999 97.4041 9.16447 97.2397C9.06895 97.0753 8.93281 96.9382 8.7691 96.8415C8.57773 96.7258 8.35843 96.6644 8.13478 96.6639C7.89374 96.6132 7.6844 96.5751 7.44336 96.5244Z" fill="white"/>
<path d="M10.5262 117.66C10.374 117.812 10.2217 117.952 10.0695 118.085C10.0473 117.916 9.98734 117.754 9.894 117.611C9.80065 117.469 9.67635 117.349 9.53031 117.26C9.33842 117.147 9.11908 117.087 8.89599 117.089C8.66129 117.045 8.42024 117.013 8.1792 116.95C8.66436 116.79 9.1837 116.763 9.68255 116.874C9.8721 116.935 10.0459 117.037 10.1916 117.173C10.3374 117.309 10.4516 117.475 10.5262 117.66Z" fill="white"/>
<path d="M22.3943 87.0225C22.1661 87.4795 21.8174 87.8656 21.3858 88.1389C21.1235 88.2597 20.8306 88.2976 20.5461 88.2478C20.2617 88.1979 19.9992 88.0626 19.7936 87.8598C19.6597 87.7215 19.4926 87.6198 19.3083 87.5643C19.1241 87.5088 18.9286 87.5013 18.7406 87.5426C18.5317 87.5841 18.3384 87.683 18.1824 87.828C17.9795 87.9613 17.7892 88.1072 17.5798 88.234C17.8526 87.8471 18.0556 87.3713 18.6011 87.1303C18.8672 87.0239 19.1586 86.9978 19.4393 87.0553C19.72 87.1128 19.9778 87.2513 20.1805 87.4538C20.3186 87.5869 20.4884 87.6825 20.6739 87.7313C20.8593 87.7802 21.0542 87.7807 21.2399 87.7329C21.4476 87.6822 21.638 87.5771 21.7917 87.4284C21.9947 87.2952 22.1787 87.143 22.3943 87.0225Z" fill="white"/>
<path d="M2.7366 64.0408C2.51032 64.4991 2.16114 64.8856 1.72803 65.1572C1.46597 65.277 1.17389 65.315 0.889881 65.2664C0.60587 65.2177 0.34311 65.0846 0.135878 64.8844C0.00155163 64.7466 -0.165279 64.6447 -0.349277 64.5881C-0.533275 64.5316 -0.728532 64.5222 -0.917095 64.5609C-1.12509 64.6051 -1.31767 64.7036 -1.4753 64.8464C-1.67828 64.9796 -1.86858 65.1318 -2.10962 65.2523C-1.83686 64.8654 -1.63388 64.3896 -1.08836 64.1486C-0.821975 64.0413 -0.529749 64.0153 -0.24862 64.0741C0.0325086 64.1328 0.289926 64.2735 0.491102 64.4784C0.630122 64.61 0.799996 64.7046 0.985103 64.7533C1.17021 64.8021 1.36461 64.8036 1.55042 64.7575C1.75706 64.7041 1.94687 64.5994 2.10228 64.4531C2.33698 64.3135 2.52728 64.1676 2.7366 64.0408Z" fill="white"/>
<path d="M6.181 76.9114C6.34346 77.3959 6.37194 77.9153 6.26345 78.4147C6.16087 78.6848 5.97977 78.9179 5.74349 79.0841C5.5072 79.2503 5.22655 79.3419 4.93772 79.3472C4.74479 79.3426 4.55397 79.3881 4.38388 79.4793C4.21378 79.5704 4.07022 79.7041 3.96721 79.8673C3.84583 80.0407 3.77751 80.2457 3.77057 80.4572C3.72617 80.6983 3.69445 80.933 3.63102 81.174C3.46254 80.6896 3.44484 80.1654 3.58027 79.6707C3.69102 79.4059 3.87804 79.1801 4.1175 79.022C4.35697 78.8639 4.63808 78.7805 4.92504 78.7826C5.11658 78.7789 5.30397 78.7263 5.46941 78.6297C5.63484 78.5331 5.7728 78.3957 5.87018 78.2308C5.97704 78.0471 6.03796 77.8404 6.04778 77.6282C6.09219 77.4125 6.11756 77.1714 6.181 76.9114Z" fill="white"/>
<path d="M1.60119 108.177C1.76154 108.662 1.78784 109.181 1.6773 109.68C1.57735 109.951 1.39778 110.185 1.16225 110.351C0.926723 110.517 0.646297 110.609 0.357915 110.613C0.164556 110.611 -0.0262218 110.657 -0.196904 110.748C-0.367586 110.839 -0.512705 110.971 -0.618942 111.133C-0.734612 111.311 -0.800335 111.517 -0.80924 111.729C-0.853643 111.964 -0.88536 112.205 -0.948792 112.446C-1.11492 111.959 -1.13476 111.434 -1.00588 110.936C-0.893039 110.672 -0.70447 110.447 -0.463991 110.29C-0.223511 110.133 0.0580868 110.051 0.345226 110.054C0.536376 110.049 0.723088 109.995 0.888227 109.899C1.05337 109.803 1.19164 109.666 1.29036 109.502C1.40217 109.31 1.46124 109.091 1.46163 108.868C1.51238 108.659 1.55044 108.418 1.60119 108.177Z" fill="white"/>
<path d="M27.1327 74.7799C25.2562 73.9242 23.3358 73.1683 21.3794 72.5154C19.413 71.7542 17.4276 71.0818 15.4422 70.4031C11.5855 69.0773 7.69711 67.8975 3.80871 66.7304C1.54418 66.0453 -0.733033 65.4617 -2.99756 64.8274C-3.08003 64.8274 -3.11174 64.9669 -2.99756 64.9987C0.897175 66.4576 4.77923 67.9736 8.70568 69.3374C12.6321 70.7012 16.4254 71.9635 20.3201 73.1116C21.4302 73.4415 22.5529 73.746 23.6693 74.0441C24.8041 74.4188 25.9608 74.7239 27.1327 74.9575C27.1898 74.9702 27.2152 74.8243 27.1327 74.7799Z" fill="#263238"/>
<path d="M31.6808 68.4048C31.5857 68.094 27.7607 67.0981 27.5641 67.041C27.507 67.041 27.4816 67.1171 27.5641 67.1362C27.748 67.1996 30.9894 68.5507 30.9767 68.5761C29.0737 73.6506 27.3357 78.776 25.5089 83.8759C23.682 88.9759 21.8108 94.0885 20.0854 99.2456C19.1149 102.132 19.1783 102.417 20.2059 99.9306C21.2335 97.4441 22.2865 95.4016 23.2316 92.877C25.1346 87.8024 26.917 82.6453 28.6995 77.5073C29.689 74.5958 31.7125 68.5063 31.6808 68.4048Z" fill="#263238"/>
</svg>
