<?xml version="1.0" encoding="UTF-8"?>
<svg version="1.1" xmlns="http://www.w3.org/2000/svg" width="64" height="64">
<path d="M0 0 C0.62132812 0.391875 1.24265625 0.78375 1.8828125 1.1875 C2.50414062 1.538125 3.12546875 1.88875 3.765625 2.25 C10.62521869 6.52611035 14.82446272 13.4804369 16.8828125 21.1875 C17.67485162 30.07491567 17.78212394 38.41951278 12.8828125 46.1875 C12.5321875 46.80882812 12.1815625 47.43015625 11.8203125 48.0703125 C7.54420215 54.92990619 0.5898756 59.12915022 -7.1171875 61.1875 C-16.00460317 61.97953912 -24.34920028 62.08681144 -32.1171875 57.1875 C-33.04917969 56.6615625 -33.04917969 56.6615625 -34 56.125 C-40.85959369 51.84888965 -45.05883772 44.8945631 -47.1171875 37.1875 C-47.90922662 28.30008433 -48.01649894 19.95548722 -43.1171875 12.1875 C-42.7665625 11.56617188 -42.4159375 10.94484375 -42.0546875 10.3046875 C-33.73233229 -3.04575731 -13.65305461 -7.47543675 0 0 Z M-35.1171875 9.1875 C-41.14567931 16.04040095 -43.53232473 23.1923142 -42.9921875 32.25 C-42.37249357 37.02836284 -40.86887099 41.21053858 -38.1171875 45.1875 C-37.4571875 45.5175 -36.7971875 45.8475 -36.1171875 46.1875 C-35.6634375 45.28 -35.2096875 44.3725 -34.7421875 43.4375 C-34.2059375 42.365 -33.6696875 41.2925 -33.1171875 40.1875 C-32.8078125 39.445 -32.4984375 38.7025 -32.1796875 37.9375 C-30.82288756 35.70277069 -29.46703653 35.25561319 -27.1171875 34.1875 C-25.40797161 32.6462688 -25.40797161 32.6462688 -24.1171875 31.1875 C-24.7771875 30.3625 -25.4371875 29.5375 -26.1171875 28.6875 C-28.60392858 24.92186351 -28.98738007 21.59120178 -28.1171875 17.1875 C-25.89582187 12.82704153 -23.68151721 10.05472579 -19.1171875 8.1875 C-14.28995658 7.65114101 -12.13827964 7.66732099 -7.8046875 9.875 C-3.67837842 13.42554502 -2.29620865 15.6018841 -1.6796875 21.0625 C-1.82652712 25.60589066 -3.62964256 28.45618259 -6.1171875 32.1875 C-5.0446875 32.868125 -3.9721875 33.54875 -2.8671875 34.25 C1.08701241 37.04589893 2.7031847 39.90897135 4.8828125 44.1875 C5.5428125 44.8475 6.2028125 45.5075 6.8828125 46.1875 C12.16007607 39.15114857 13.51236389 32.62022418 12.48828125 23.93359375 C10.81106883 16.32662387 6.24754128 10.24194241 -0.08203125 5.8125 C-11.80178874 -1.43768389 -24.85781325 0.16233619 -35.1171875 9.1875 Z M-23.1171875 16.1875 C-24.54380969 19.04074437 -24.42752618 21.02204549 -24.1171875 24.1875 C-22.31724976 26.88740662 -21.0334145 28.7293865 -18.1171875 30.1875 C-14.24504568 30.61773798 -12.59222379 30.50419086 -9.3046875 28.3125 C-6.72451934 25.80605093 -6.20000786 24.93288327 -5.8046875 21.375 C-6.18883108 17.4567355 -7.40975067 15.97456733 -10.1171875 13.1875 C-15.4153717 10.5384079 -19.1256813 12.31003683 -23.1171875 16.1875 Z M-28.4921875 41.5 C-30.98220965 44.61252768 -31.91974523 47.13993345 -32.1171875 51.1875 C-25.02409937 56.5073161 -18.55315825 57.77349371 -9.8125 56.7265625 C-5.80697857 55.92545821 -2.35158466 54.72881205 0.8828125 52.1875 C2.38730418 49.91549982 2.38730418 49.91549982 1.8828125 47.1875 C-0.50196759 41.75020139 -2.81974956 39.11799759 -8.1171875 36.1875 C-15.93864799 33.5803465 -22.92613392 35.49556989 -28.4921875 41.5 Z " fill="#000000" transform="translate(47.1171875,2.8125)"/>
</svg>
